<svg width="590" height="589" viewBox="0 0 590 589" fill="none" xmlns="http://www.w3.org/2000/svg">
<path d="M295 294H590V294C590 456.924 457.924 589 295 589V589V294Z" fill="#F7FEE7" style="fill:#F7FEE7;fill:color(display-p3 0.9686 0.9961 0.9059);fill-opacity:1;"/>
<path d="M294.208 295.345L294.208 0.344727V0.344727C457.132 0.344727 589.208 132.421 589.208 295.345V295.345L294.208 295.345Z" fill="#F7FEE7" style="fill:#F7FEE7;fill:color(display-p3 0.9686 0.9961 0.9059);fill-opacity:1;"/>
<path d="M295 295L3.05176e-05 295V295C3.05176e-05 132.077 132.076 0.000518799 295 0.000518799V0.000518799L295 295Z" fill="#F7FEE7" style="fill:#F7FEE7;fill:color(display-p3 0.9686 0.9961 0.9059);fill-opacity:1;"/>
<path d="M295 294V589V589C132.076 589 -4.64916e-06 456.924 -4.64916e-06 294V294H295Z" fill="#F7FEE7" style="fill:#F7FEE7;fill:color(display-p3 0.9686 0.9961 0.9059);fill-opacity:1;"/>
<path d="M191.723 154.293C190.738 153.957 189.805 153.789 188.922 153.789C187.922 153.789 187.105 154.02 186.473 154.48C185.848 154.934 185.535 155.582 185.535 156.426C185.535 157.426 186.359 158.305 188.008 159.062C189.227 159.625 190.031 160.016 190.422 160.234C190.82 160.453 191.223 160.754 191.629 161.137C192.035 161.52 192.359 161.973 192.602 162.496C192.852 163.012 192.977 163.594 192.977 164.242C192.977 165.852 192.434 167.102 191.348 167.992C190.27 168.875 188.996 169.316 187.527 169.316C186.105 169.316 184.859 169.035 183.789 168.473L184.188 166.82C185.445 167.391 186.543 167.676 187.48 167.676C188.574 167.676 189.449 167.395 190.105 166.832C190.77 166.262 191.102 165.48 191.102 164.488C191.102 163.754 190.887 163.133 190.457 162.625C190.027 162.109 189.234 161.586 188.078 161.055C186.891 160.508 186.121 160.137 185.77 159.941C185.426 159.738 185.082 159.461 184.738 159.109C184.395 158.758 184.129 158.363 183.941 157.926C183.754 157.488 183.66 157.012 183.66 156.496C183.66 155.129 184.152 154.062 185.137 153.297C186.121 152.531 187.367 152.148 188.875 152.148C189.977 152.148 191.07 152.316 192.156 152.652L191.723 154.293ZM207.648 169H205.832C205.684 168.508 205.609 167.852 205.609 167.031C204.57 168.555 203.156 169.316 201.367 169.316C200.461 169.316 199.66 168.996 198.965 168.355C198.277 167.707 197.934 166.875 197.934 165.859C197.934 165.258 198.055 164.727 198.297 164.266C198.539 163.805 198.895 163.418 199.363 163.105C199.832 162.785 200.402 162.535 201.074 162.355C201.746 162.168 202.543 162.039 203.465 161.969L205.516 161.805V161.219C205.516 159.125 204.539 158.078 202.586 158.078C202.125 158.078 201.539 158.18 200.828 158.383C200.125 158.578 199.52 158.812 199.012 159.086L198.531 157.773C200.195 156.922 201.742 156.496 203.172 156.496C205.953 156.496 207.344 157.969 207.344 160.914V166.164C207.344 167.227 207.445 168.172 207.648 169ZM205.516 165.379V163.164C203.867 163.312 202.734 163.453 202.117 163.586C201.508 163.711 200.977 163.949 200.523 164.301C200.078 164.652 199.855 165.129 199.855 165.73C199.855 166.277 200.047 166.719 200.43 167.055C200.812 167.391 201.301 167.559 201.895 167.559C202.543 167.559 203.188 167.367 203.828 166.984C204.469 166.594 205.031 166.059 205.516 165.379ZM222.719 169H220.891V160.984C220.891 159.047 220.531 158.078 219.812 158.078C219.445 158.078 219.039 158.414 218.594 159.086C218.156 159.75 217.938 160.117 217.938 160.188V169H216.121V160.984C216.121 159.047 215.758 158.078 215.031 158.078C214.672 158.078 214.27 158.414 213.824 159.086C213.387 159.75 213.168 160.117 213.168 160.188V169H211.34V156.789H213.098V158.629C213.441 157.98 213.848 157.465 214.316 157.082C214.793 156.691 215.266 156.496 215.734 156.496C216.227 156.496 216.668 156.691 217.059 157.082C217.449 157.465 217.719 157.98 217.867 158.629C218.211 157.98 218.621 157.465 219.098 157.082C219.574 156.691 220.043 156.496 220.504 156.496C221.98 156.496 222.719 157.816 222.719 160.457V169ZM237.133 169H235.305V160.984C235.305 159.047 234.945 158.078 234.227 158.078C233.859 158.078 233.453 158.414 233.008 159.086C232.57 159.75 232.352 160.117 232.352 160.188V169H230.535V160.984C230.535 159.047 230.172 158.078 229.445 158.078C229.086 158.078 228.684 158.414 228.238 159.086C227.801 159.75 227.582 160.117 227.582 160.188V169H225.754V156.789H227.512V158.629C227.855 157.98 228.262 157.465 228.73 157.082C229.207 156.691 229.68 156.496 230.148 156.496C230.641 156.496 231.082 156.691 231.473 157.082C231.863 157.465 232.133 157.98 232.281 158.629C232.625 157.98 233.035 157.465 233.512 157.082C233.988 156.691 234.457 156.496 234.918 156.496C236.395 156.496 237.133 157.816 237.133 160.457V169ZM250.949 162.953H242.57C242.57 164.336 242.969 165.477 243.766 166.375C244.57 167.273 245.555 167.723 246.719 167.723C247.828 167.723 248.973 167.523 250.152 167.125L250.469 168.59C249.391 169.074 248.133 169.316 246.695 169.316C244.883 169.316 243.422 168.734 242.312 167.57C241.203 166.406 240.648 164.836 240.648 162.859C240.648 160.922 241.145 159.379 242.137 158.23C243.137 157.074 244.426 156.496 246.004 156.496C247.41 156.496 248.586 157.031 249.531 158.102C250.477 159.172 250.949 160.598 250.949 162.379V162.953ZM248.957 161.465C248.957 160.512 248.66 159.711 248.066 159.062C247.473 158.406 246.809 158.078 246.074 158.078C245.129 158.078 244.344 158.391 243.719 159.016C243.102 159.641 242.758 160.457 242.688 161.465H248.957ZM265 169H263.172V161.172C263.172 160.086 262.996 159.301 262.645 158.816C262.301 158.324 261.758 158.078 261.016 158.078C259.898 158.078 258.699 158.773 257.418 160.164V169H255.59V156.789H257.418V158.582C258.73 157.191 260.113 156.496 261.566 156.496C263.855 156.496 265 157.879 265 160.645V169ZM295.023 169H292.621L287.441 162.93L286.246 163.961V169H284.418V152.465H286.246V161.945L291.977 156.789H294.309L288.742 161.781L295.023 169ZM308.547 169H306.73C306.582 168.508 306.508 167.852 306.508 167.031C305.469 168.555 304.055 169.316 302.266 169.316C301.359 169.316 300.559 168.996 299.863 168.355C299.176 167.707 298.832 166.875 298.832 165.859C298.832 165.258 298.953 164.727 299.195 164.266C299.438 163.805 299.793 163.418 300.262 163.105C300.73 162.785 301.301 162.535 301.973 162.355C302.645 162.168 303.441 162.039 304.363 161.969L306.414 161.805V161.219C306.414 159.125 305.438 158.078 303.484 158.078C303.023 158.078 302.438 158.18 301.727 158.383C301.023 158.578 300.418 158.812 299.91 159.086L299.43 157.773C301.094 156.922 302.641 156.496 304.07 156.496C306.852 156.496 308.242 157.969 308.242 160.914V166.164C308.242 167.227 308.344 168.172 308.547 169ZM306.414 165.379V163.164C304.766 163.312 303.633 163.453 303.016 163.586C302.406 163.711 301.875 163.949 301.422 164.301C300.977 164.652 300.754 165.129 300.754 165.73C300.754 166.277 300.945 166.719 301.328 167.055C301.711 167.391 302.199 167.559 302.793 167.559C303.441 167.559 304.086 167.367 304.727 166.984C305.367 166.594 305.93 166.059 306.414 165.379ZM322.656 169H320.828V161.172C320.828 160.086 320.652 159.301 320.301 158.816C319.957 158.324 319.414 158.078 318.672 158.078C317.555 158.078 316.355 158.773 315.074 160.164V169H313.246V156.789H315.074V158.582C316.387 157.191 317.77 156.496 319.223 156.496C321.512 156.496 322.656 157.879 322.656 160.645V169ZM352.035 156.789L347.406 169H345.742L341.137 156.789H343.129L346.586 166.504L350.043 156.789H352.035ZM361.961 152.172C362.305 152.172 362.598 152.297 362.84 152.547C363.082 152.789 363.203 153.082 363.203 153.426C363.203 153.785 363.082 154.086 362.84 154.328C362.605 154.57 362.312 154.691 361.961 154.691C361.641 154.691 361.355 154.566 361.105 154.316C360.863 154.059 360.742 153.762 360.742 153.426C360.742 153.09 360.863 152.797 361.105 152.547C361.355 152.297 361.641 152.172 361.961 152.172ZM362.852 169H361.023V158.371H357.426V156.789H362.852V169ZM394.727 169H392.898V161.172C392.898 160.086 392.723 159.301 392.371 158.816C392.027 158.324 391.484 158.078 390.742 158.078C389.625 158.078 388.426 158.773 387.145 160.164V169H385.316V156.789H387.145V158.582C388.457 157.191 389.84 156.496 391.293 156.496C393.582 156.496 394.727 157.879 394.727 160.645V169ZM409.445 169H407.629C407.48 168.508 407.406 167.852 407.406 167.031C406.367 168.555 404.953 169.316 403.164 169.316C402.258 169.316 401.457 168.996 400.762 168.355C400.074 167.707 399.73 166.875 399.73 165.859C399.73 165.258 399.852 164.727 400.094 164.266C400.336 163.805 400.691 163.418 401.16 163.105C401.629 162.785 402.199 162.535 402.871 162.355C403.543 162.168 404.34 162.039 405.262 161.969L407.312 161.805V161.219C407.312 159.125 406.336 158.078 404.383 158.078C403.922 158.078 403.336 158.18 402.625 158.383C401.922 158.578 401.316 158.812 400.809 159.086L400.328 157.773C401.992 156.922 403.539 156.496 404.969 156.496C407.75 156.496 409.141 157.969 409.141 160.914V166.164C409.141 167.227 409.242 168.172 409.445 169ZM407.312 165.379V163.164C405.664 163.312 404.531 163.453 403.914 163.586C403.305 163.711 402.773 163.949 402.32 164.301C401.875 164.652 401.652 165.129 401.652 165.73C401.652 166.277 401.844 166.719 402.227 167.055C402.609 167.391 403.098 167.559 403.691 167.559C404.34 167.559 404.984 167.367 405.625 166.984C406.266 166.594 406.828 166.059 407.312 165.379ZM404.723 150.859C405.332 150.859 405.855 151.082 406.293 151.527C406.738 151.965 406.961 152.484 406.961 153.086C406.961 153.695 406.738 154.223 406.293 154.668C405.855 155.105 405.332 155.324 404.723 155.324C404.113 155.324 403.59 155.105 403.152 154.668C402.715 154.223 402.496 153.695 402.496 153.086C402.496 152.484 402.715 151.965 403.152 151.527C403.59 151.082 404.113 150.859 404.723 150.859ZM404.723 154.41C405.082 154.41 405.391 154.281 405.648 154.023C405.914 153.758 406.047 153.445 406.047 153.086C406.047 152.734 405.914 152.43 405.648 152.172C405.391 151.906 405.082 151.773 404.723 151.773C404.371 151.773 404.062 151.906 403.797 152.172C403.539 152.43 403.41 152.734 403.41 153.086C403.41 153.453 403.539 153.766 403.797 154.023C404.055 154.281 404.363 154.41 404.723 154.41ZM193.891 219H192.062V210.984C192.062 209.047 191.703 208.078 190.984 208.078C190.617 208.078 190.211 208.414 189.766 209.086C189.328 209.75 189.109 210.117 189.109 210.188V219H187.293V210.984C187.293 209.047 186.93 208.078 186.203 208.078C185.844 208.078 185.441 208.414 184.996 209.086C184.559 209.75 184.34 210.117 184.34 210.188V219H182.512V206.789H184.27V208.629C184.613 207.98 185.02 207.465 185.488 207.082C185.965 206.691 186.438 206.496 186.906 206.496C187.398 206.496 187.84 206.691 188.23 207.082C188.621 207.465 188.891 207.98 189.039 208.629C189.383 207.98 189.793 207.465 190.27 207.082C190.746 206.691 191.215 206.496 191.676 206.496C193.152 206.496 193.891 207.816 193.891 210.457V219ZM207.707 212.953H199.328C199.328 214.336 199.727 215.477 200.523 216.375C201.328 217.273 202.312 217.723 203.477 217.723C204.586 217.723 205.73 217.523 206.91 217.125L207.227 218.59C206.148 219.074 204.891 219.316 203.453 219.316C201.641 219.316 200.18 218.734 199.07 217.57C197.961 216.406 197.406 214.836 197.406 212.859C197.406 210.922 197.902 209.379 198.895 208.23C199.895 207.074 201.184 206.496 202.762 206.496C204.168 206.496 205.344 207.031 206.289 208.102C207.234 209.172 207.707 210.598 207.707 212.379V212.953ZM205.715 211.465C205.715 210.512 205.418 209.711 204.824 209.062C204.23 208.406 203.566 208.078 202.832 208.078C201.887 208.078 201.102 208.391 200.477 209.016C199.859 209.641 199.516 210.457 199.445 211.465H205.715ZM215.734 214.395C214.594 214.949 214.023 215.438 214.023 215.859C214.023 216.086 214.152 216.277 214.41 216.434C214.676 216.59 215.035 216.668 215.488 216.668L219.602 216.551C220.578 216.551 221.336 216.789 221.875 217.266C222.422 217.742 222.695 218.418 222.695 219.293C222.695 220.676 222.078 221.777 220.844 222.598C219.609 223.418 218.168 223.828 216.52 223.828C215.168 223.828 214.062 223.543 213.203 222.973C212.344 222.41 211.914 221.68 211.914 220.781C211.914 219.805 212.578 218.98 213.906 218.309C212.805 217.793 212.254 217.16 212.254 216.41C212.254 215.551 212.965 214.75 214.387 214.008C213.73 213.609 213.227 213.094 212.875 212.461C212.523 211.828 212.348 211.16 212.348 210.457C212.348 209.309 212.738 208.367 213.52 207.633C214.301 206.891 215.277 206.52 216.449 206.52C217.293 206.52 218.055 206.695 218.734 207.047L222.355 206.496V208.277H220.023C220.375 208.895 220.551 209.621 220.551 210.457C220.551 211.566 220.164 212.504 219.391 213.27C218.617 214.035 217.637 214.418 216.449 214.418C216.199 214.418 215.961 214.41 215.734 214.395ZM216.449 213C217.121 213 217.668 212.77 218.09 212.309C218.52 211.84 218.734 211.23 218.734 210.48C218.734 209.691 218.527 209.074 218.113 208.629C217.699 208.184 217.145 207.961 216.449 207.961C215.801 207.961 215.254 208.195 214.809 208.664C214.371 209.125 214.152 209.73 214.152 210.48C214.152 211.215 214.371 211.82 214.809 212.297C215.254 212.766 215.801 213 216.449 213ZM216.52 222.41C217.723 222.41 218.746 222.141 219.59 221.602C220.441 221.07 220.867 220.41 220.867 219.621C220.867 218.809 220.266 218.402 219.062 218.402C218.664 218.402 217.977 218.426 217 218.473C216.383 218.504 215.898 218.52 215.547 218.52C215.375 218.52 215.105 218.66 214.738 218.941C214.379 219.223 214.102 219.504 213.906 219.785C213.719 220.074 213.625 220.371 213.625 220.676C213.625 221.152 213.891 221.559 214.422 221.895C214.953 222.238 215.652 222.41 216.52 222.41ZM236.535 212.953H228.156C228.156 214.336 228.555 215.477 229.352 216.375C230.156 217.273 231.141 217.723 232.305 217.723C233.414 217.723 234.559 217.523 235.738 217.125L236.055 218.59C234.977 219.074 233.719 219.316 232.281 219.316C230.469 219.316 229.008 218.734 227.898 217.57C226.789 216.406 226.234 214.836 226.234 212.859C226.234 210.922 226.73 209.379 227.723 208.23C228.723 207.074 230.012 206.496 231.59 206.496C232.996 206.496 234.172 207.031 235.117 208.102C236.062 209.172 236.535 210.598 236.535 212.379V212.953ZM234.543 211.465C234.543 210.512 234.246 209.711 233.652 209.062C233.059 208.406 232.395 208.078 231.66 208.078C230.715 208.078 229.93 208.391 229.305 209.016C228.688 209.641 228.344 210.457 228.273 211.465H234.543ZM250.703 218.449C249.477 219.012 248.27 219.293 247.082 219.293C244.902 219.293 243.812 218.141 243.812 215.836V208.371H241.469V206.789H243.812V203.449H245.594V206.789H249.742V208.371H245.594V215.355C245.594 216.098 245.758 216.676 246.086 217.09C246.414 217.496 246.859 217.699 247.422 217.699C248.422 217.699 249.41 217.477 250.387 217.031L250.703 218.449ZM280.375 219H278.547V210.984C278.547 209.047 278.188 208.078 277.469 208.078C277.102 208.078 276.695 208.414 276.25 209.086C275.812 209.75 275.594 210.117 275.594 210.188V219H273.777V210.984C273.777 209.047 273.414 208.078 272.688 208.078C272.328 208.078 271.926 208.414 271.48 209.086C271.043 209.75 270.824 210.117 270.824 210.188V219H268.996V206.789H270.754V208.629C271.098 207.98 271.504 207.465 271.973 207.082C272.449 206.691 272.922 206.496 273.391 206.496C273.883 206.496 274.324 206.691 274.715 207.082C275.105 207.465 275.375 207.98 275.523 208.629C275.867 207.98 276.277 207.465 276.754 207.082C277.23 206.691 277.699 206.496 278.16 206.496C279.637 206.496 280.375 207.816 280.375 210.457V219ZM294.191 212.953H285.812C285.812 214.336 286.211 215.477 287.008 216.375C287.812 217.273 288.797 217.723 289.961 217.723C291.07 217.723 292.215 217.523 293.395 217.125L293.711 218.59C292.633 219.074 291.375 219.316 289.938 219.316C288.125 219.316 286.664 218.734 285.555 217.57C284.445 216.406 283.891 214.836 283.891 212.859C283.891 210.922 284.387 209.379 285.379 208.23C286.379 207.074 287.668 206.496 289.246 206.496C290.652 206.496 291.828 207.031 292.773 208.102C293.719 209.172 294.191 210.598 294.191 212.379V212.953ZM292.199 211.465C292.199 210.512 291.902 209.711 291.309 209.062C290.715 208.406 290.051 208.078 289.316 208.078C288.371 208.078 287.586 208.391 286.961 209.016C286.344 209.641 286 210.457 285.93 211.465H292.199ZM308.43 207.117L307.691 208.875C306.887 208.523 306.191 208.348 305.605 208.348C305.066 208.348 304.539 208.504 304.023 208.816C303.508 209.121 303.031 209.562 302.594 210.141C302.164 210.711 301.949 211.031 301.949 211.102V219H300.133V206.789H301.949V209.262C302.926 207.418 304.191 206.496 305.746 206.496C306.668 206.496 307.562 206.703 308.43 207.117ZM323.02 212.953H314.641C314.641 214.336 315.039 215.477 315.836 216.375C316.641 217.273 317.625 217.723 318.789 217.723C319.898 217.723 321.043 217.523 322.223 217.125L322.539 218.59C321.461 219.074 320.203 219.316 318.766 219.316C316.953 219.316 315.492 218.734 314.383 217.57C313.273 216.406 312.719 214.836 312.719 212.859C312.719 210.922 313.215 209.379 314.207 208.23C315.207 207.074 316.496 206.496 318.074 206.496C319.48 206.496 320.656 207.031 321.602 208.102C322.547 209.172 323.02 210.598 323.02 212.379V212.953ZM321.027 211.465C321.027 210.512 320.73 209.711 320.137 209.062C319.543 208.406 318.879 208.078 318.145 208.078C317.199 208.078 316.414 208.391 315.789 209.016C315.172 209.641 314.828 210.457 314.758 211.465H321.027ZM323.852 269H321.449L316.27 262.93L315.074 263.961V269H313.246V252.465H315.074V261.945L320.805 256.789H323.137L317.57 261.781L323.852 269ZM337.375 269H335.559C335.41 268.508 335.336 267.852 335.336 267.031C334.297 268.555 332.883 269.316 331.094 269.316C330.188 269.316 329.387 268.996 328.691 268.355C328.004 267.707 327.66 266.875 327.66 265.859C327.66 265.258 327.781 264.727 328.023 264.266C328.266 263.805 328.621 263.418 329.09 263.105C329.559 262.785 330.129 262.535 330.801 262.355C331.473 262.168 332.27 262.039 333.191 261.969L335.242 261.805V261.219C335.242 259.125 334.266 258.078 332.312 258.078C331.852 258.078 331.266 258.18 330.555 258.383C329.852 258.578 329.246 258.812 328.738 259.086L328.258 257.773C329.922 256.922 331.469 256.496 332.898 256.496C335.68 256.496 337.07 257.969 337.07 260.914V266.164C337.07 267.227 337.172 268.172 337.375 269ZM335.242 265.379V263.164C333.594 263.312 332.461 263.453 331.844 263.586C331.234 263.711 330.703 263.949 330.25 264.301C329.805 264.652 329.582 265.129 329.582 265.73C329.582 266.277 329.773 266.719 330.156 267.055C330.539 267.391 331.027 267.559 331.621 267.559C332.27 267.559 332.914 267.367 333.555 266.984C334.195 266.594 334.758 266.059 335.242 265.379ZM351.484 269H349.656V261.172C349.656 260.086 349.48 259.301 349.129 258.816C348.785 258.324 348.242 258.078 347.5 258.078C346.383 258.078 345.184 258.773 343.902 260.164V269H342.074V256.789H343.902V258.582C345.215 257.191 346.598 256.496 348.051 256.496C350.34 256.496 351.484 257.879 351.484 260.645V269ZM380.266 269H378.438V267.242C378.062 267.844 377.523 268.34 376.82 268.73C376.125 269.121 375.391 269.316 374.617 269.316C373.219 269.316 372.113 268.695 371.301 267.453C370.488 266.203 370.082 264.621 370.082 262.707C370.082 260.918 370.504 259.438 371.348 258.266C372.199 257.086 373.324 256.496 374.723 256.496C376.262 256.496 377.5 257.121 378.438 258.371V252.465H380.266V269ZM378.438 265.262V260.188C377.562 258.781 376.508 258.078 375.273 258.078C374.266 258.078 373.469 258.527 372.883 259.426C372.297 260.316 372.004 261.445 372.004 262.812C372.004 264.219 372.277 265.383 372.824 266.305C373.379 267.219 374.137 267.676 375.098 267.676C375.559 267.676 376.023 267.551 376.492 267.301C376.961 267.051 377.402 266.676 377.816 266.176C378.23 265.676 378.438 265.371 378.438 265.262ZM394.703 269H392.875V267.195C391.562 268.594 390.18 269.293 388.727 269.293C386.438 269.293 385.293 267.906 385.293 265.133V256.789H387.121V264.605C387.121 265.645 387.285 266.422 387.613 266.938C387.941 267.445 388.496 267.699 389.277 267.699C390.395 267.699 391.594 267.004 392.875 265.613V256.789H394.703V269ZM193.48 306.789L188.852 319H187.188L182.582 306.789H184.574L188.031 316.504L191.488 306.789H193.48ZM209.312 318.59C208.305 319.074 207.297 319.316 206.289 319.316C204.648 319.316 203.438 318.625 202.656 317.242C201.625 318.625 200.418 319.316 199.035 319.316C198.137 319.316 197.395 319.004 196.809 318.379C196.23 317.746 195.941 316.906 195.941 315.859C195.941 314.734 196.363 313.832 197.207 313.152C198.051 312.465 199.566 312.023 201.754 311.828V311.219C201.754 310.117 201.574 309.32 201.215 308.828C200.863 308.328 200.25 308.078 199.375 308.078C198.766 308.078 197.941 308.305 196.902 308.758L196.422 307.363C197.602 306.785 198.777 306.496 199.949 306.496C201.395 306.496 202.395 306.961 202.949 307.891C203.66 306.961 204.574 306.496 205.691 306.496C206.801 306.496 207.676 306.984 208.316 307.961C208.965 308.938 209.289 310.371 209.289 312.262V312.953H203.57V313.164C203.57 314.633 203.801 315.762 204.262 316.551C204.723 317.332 205.398 317.723 206.289 317.723C207.133 317.723 208.051 317.523 209.043 317.125L209.312 318.59ZM207.25 311.465C207.25 310.395 207.113 309.559 206.84 308.957C206.566 308.355 206.184 308.055 205.691 308.055C205.059 308.055 204.559 308.359 204.191 308.969C203.824 309.57 203.617 310.402 203.57 311.465H207.25ZM201.754 316V313.164C200.48 313.242 199.512 313.516 198.848 313.984C198.191 314.445 197.863 315.027 197.863 315.73C197.863 316.27 198.027 316.711 198.355 317.055C198.691 317.391 199.102 317.559 199.586 317.559C200.156 317.559 200.66 317.352 201.098 316.938C201.535 316.523 201.754 316.211 201.754 316ZM221.945 307.117L221.207 308.875C220.402 308.523 219.707 308.348 219.121 308.348C218.582 308.348 218.055 308.504 217.539 308.816C217.023 309.121 216.547 309.562 216.109 310.141C215.68 310.711 215.465 311.031 215.465 311.102V319H213.648V306.789H215.465V309.262C216.441 307.418 217.707 306.496 219.262 306.496C220.184 306.496 221.078 306.703 221.945 307.117ZM236.535 312.953H228.156C228.156 314.336 228.555 315.477 229.352 316.375C230.156 317.273 231.141 317.723 232.305 317.723C233.414 317.723 234.559 317.523 235.738 317.125L236.055 318.59C234.977 319.074 233.719 319.316 232.281 319.316C230.469 319.316 229.008 318.734 227.898 317.57C226.789 316.406 226.234 314.836 226.234 312.859C226.234 310.922 226.73 309.379 227.723 308.23C228.723 307.074 230.012 306.496 231.59 306.496C232.996 306.496 234.172 307.031 235.117 308.102C236.062 309.172 236.535 310.598 236.535 312.379V312.953ZM234.543 311.465C234.543 310.512 234.246 309.711 233.652 309.062C233.059 308.406 232.395 308.078 231.66 308.078C230.715 308.078 229.93 308.391 229.305 309.016C228.688 309.641 228.344 310.457 228.273 311.465H234.543ZM265.961 319H264.133V310.984C264.133 309.047 263.773 308.078 263.055 308.078C262.688 308.078 262.281 308.414 261.836 309.086C261.398 309.75 261.18 310.117 261.18 310.188V319H259.363V310.984C259.363 309.047 259 308.078 258.273 308.078C257.914 308.078 257.512 308.414 257.066 309.086C256.629 309.75 256.41 310.117 256.41 310.188V319H254.582V306.789H256.34V308.629C256.684 307.98 257.09 307.465 257.559 307.082C258.035 306.691 258.508 306.496 258.977 306.496C259.469 306.496 259.91 306.691 260.301 307.082C260.691 307.465 260.961 307.98 261.109 308.629C261.453 307.98 261.863 307.465 262.34 307.082C262.816 306.691 263.285 306.496 263.746 306.496C265.223 306.496 265.961 307.816 265.961 310.457V319ZM279.777 312.953H271.398C271.398 314.336 271.797 315.477 272.594 316.375C273.398 317.273 274.383 317.723 275.547 317.723C276.656 317.723 277.801 317.523 278.98 317.125L279.297 318.59C278.219 319.074 276.961 319.316 275.523 319.316C273.711 319.316 272.25 318.734 271.141 317.57C270.031 316.406 269.477 314.836 269.477 312.859C269.477 310.922 269.973 309.379 270.965 308.23C271.965 307.074 273.254 306.496 274.832 306.496C276.238 306.496 277.414 307.031 278.359 308.102C279.305 309.172 279.777 310.598 279.777 312.379V312.953ZM277.785 311.465C277.785 310.512 277.488 309.711 276.895 309.062C276.301 308.406 275.637 308.078 274.902 308.078C273.957 308.078 273.172 308.391 272.547 309.016C271.93 309.641 271.586 310.457 271.516 311.465H277.785ZM293.781 319H291.953V317.242C291.578 317.844 291.039 318.34 290.336 318.73C289.641 319.121 288.906 319.316 288.133 319.316C286.734 319.316 285.629 318.695 284.816 317.453C284.004 316.203 283.598 314.621 283.598 312.707C283.598 310.918 284.02 309.438 284.863 308.266C285.715 307.086 286.84 306.496 288.238 306.496C289.777 306.496 291.016 307.121 291.953 308.371V302.465H293.781V319ZM291.953 315.262V310.188C291.078 308.781 290.023 308.078 288.789 308.078C287.781 308.078 286.984 308.527 286.398 309.426C285.812 310.316 285.52 311.445 285.52 312.812C285.52 314.219 285.793 315.383 286.34 316.305C286.895 317.219 287.652 317.676 288.613 317.676C289.074 317.676 289.539 317.551 290.008 317.301C290.477 317.051 290.918 316.676 291.332 316.176C291.746 315.676 291.953 315.371 291.953 315.262ZM322.773 318.449C321.547 319.012 320.34 319.293 319.152 319.293C316.973 319.293 315.883 318.141 315.883 315.836V308.371H313.539V306.789H315.883V303.449H317.664V306.789H321.812V308.371H317.664V315.355C317.664 316.098 317.828 316.676 318.156 317.09C318.484 317.496 318.93 317.699 319.492 317.699C320.492 317.699 321.48 317.477 322.457 317.031L322.773 318.449ZM333.133 302.172C333.477 302.172 333.77 302.297 334.012 302.547C334.254 302.789 334.375 303.082 334.375 303.426C334.375 303.785 334.254 304.086 334.012 304.328C333.777 304.57 333.484 304.691 333.133 304.691C332.812 304.691 332.527 304.566 332.277 304.316C332.035 304.059 331.914 303.762 331.914 303.426C331.914 303.09 332.035 302.797 332.277 302.547C332.527 302.297 332.812 302.172 333.133 302.172ZM334.023 319H332.195V308.371H328.598V306.789H334.023V319ZM350.594 319H345.602V304.047H342.414V302.465H347.43V317.418H350.594V319ZM380.617 319H378.801C378.652 318.508 378.578 317.852 378.578 317.031C377.539 318.555 376.125 319.316 374.336 319.316C373.43 319.316 372.629 318.996 371.934 318.355C371.246 317.707 370.902 316.875 370.902 315.859C370.902 315.258 371.023 314.727 371.266 314.266C371.508 313.805 371.863 313.418 372.332 313.105C372.801 312.785 373.371 312.535 374.043 312.355C374.715 312.168 375.512 312.039 376.434 311.969L378.484 311.805V311.219C378.484 309.125 377.508 308.078 375.555 308.078C375.094 308.078 374.508 308.18 373.797 308.383C373.094 308.578 372.488 308.812 371.98 309.086L371.5 307.773C373.164 306.922 374.711 306.496 376.141 306.496C378.922 306.496 380.312 307.969 380.312 310.914V316.164C380.312 317.227 380.414 318.172 380.617 319ZM378.484 315.379V313.164C376.836 313.312 375.703 313.453 375.086 313.586C374.477 313.711 373.945 313.949 373.492 314.301C373.047 314.652 372.824 315.129 372.824 315.73C372.824 316.277 373.016 316.719 373.398 317.055C373.781 317.391 374.27 317.559 374.863 317.559C375.512 317.559 376.156 317.367 376.797 316.984C377.438 316.594 378 316.059 378.484 315.379ZM394.844 318.449C393.617 319.012 392.41 319.293 391.223 319.293C389.043 319.293 387.953 318.141 387.953 315.836V308.371H385.609V306.789H387.953V303.449H389.734V306.789H393.883V308.371H389.734V315.355C389.734 316.098 389.898 316.676 390.227 317.09C390.555 317.496 391 317.699 391.562 317.699C392.562 317.699 393.551 317.477 394.527 317.031L394.844 318.449ZM186.906 364.395C185.766 364.949 185.195 365.438 185.195 365.859C185.195 366.086 185.324 366.277 185.582 366.434C185.848 366.59 186.207 366.668 186.66 366.668L190.773 366.551C191.75 366.551 192.508 366.789 193.047 367.266C193.594 367.742 193.867 368.418 193.867 369.293C193.867 370.676 193.25 371.777 192.016 372.598C190.781 373.418 189.34 373.828 187.691 373.828C186.34 373.828 185.234 373.543 184.375 372.973C183.516 372.41 183.086 371.68 183.086 370.781C183.086 369.805 183.75 368.98 185.078 368.309C183.977 367.793 183.426 367.16 183.426 366.41C183.426 365.551 184.137 364.75 185.559 364.008C184.902 363.609 184.398 363.094 184.047 362.461C183.695 361.828 183.52 361.16 183.52 360.457C183.52 359.309 183.91 358.367 184.691 357.633C185.473 356.891 186.449 356.52 187.621 356.52C188.465 356.52 189.227 356.695 189.906 357.047L193.527 356.496V358.277H191.195C191.547 358.895 191.723 359.621 191.723 360.457C191.723 361.566 191.336 362.504 190.562 363.27C189.789 364.035 188.809 364.418 187.621 364.418C187.371 364.418 187.133 364.41 186.906 364.395ZM187.621 363C188.293 363 188.84 362.77 189.262 362.309C189.691 361.84 189.906 361.23 189.906 360.48C189.906 359.691 189.699 359.074 189.285 358.629C188.871 358.184 188.316 357.961 187.621 357.961C186.973 357.961 186.426 358.195 185.98 358.664C185.543 359.125 185.324 359.73 185.324 360.48C185.324 361.215 185.543 361.82 185.98 362.297C186.426 362.766 186.973 363 187.621 363ZM187.691 372.41C188.895 372.41 189.918 372.141 190.762 371.602C191.613 371.07 192.039 370.41 192.039 369.621C192.039 368.809 191.438 368.402 190.234 368.402C189.836 368.402 189.148 368.426 188.172 368.473C187.555 368.504 187.07 368.52 186.719 368.52C186.547 368.52 186.277 368.66 185.91 368.941C185.551 369.223 185.273 369.504 185.078 369.785C184.891 370.074 184.797 370.371 184.797 370.676C184.797 371.152 185.062 371.559 185.594 371.895C186.125 372.238 186.824 372.41 187.691 372.41ZM205.855 357.527C207.355 358.691 208.105 360.477 208.105 362.883C208.105 364.812 207.609 366.367 206.617 367.547C205.625 368.727 204.289 369.316 202.609 369.316C202.047 369.316 201.473 369.234 200.887 369.07L200.172 370.758H198.578L199.562 368.449C197.93 367.301 197.113 365.445 197.113 362.883C197.113 360.961 197.609 359.418 198.602 358.254C199.594 357.082 200.93 356.496 202.609 356.496C203.281 356.496 203.93 356.602 204.555 356.812L205.305 355.078H206.91L205.855 357.527ZM203.91 358.324C203.48 358.16 203.047 358.078 202.609 358.078C201.477 358.078 200.598 358.527 199.973 359.426C199.348 360.316 199.035 361.477 199.035 362.906C199.035 364.531 199.461 365.809 200.312 366.738L203.91 358.324ZM201.531 367.559C201.898 367.668 202.258 367.723 202.609 367.723C203.719 367.723 204.594 367.254 205.234 366.316C205.875 365.379 206.195 364.242 206.195 362.906C206.195 361.398 205.832 360.184 205.105 359.262L201.531 367.559ZM221.945 357.117L221.207 358.875C220.402 358.523 219.707 358.348 219.121 358.348C218.582 358.348 218.055 358.504 217.539 358.816C217.023 359.121 216.547 359.562 216.109 360.141C215.68 360.711 215.465 361.031 215.465 361.102V369H213.648V356.789H215.465V359.262C216.441 357.418 217.707 356.496 219.262 356.496C220.184 356.496 221.078 356.703 221.945 357.117ZM236.535 362.953H228.156C228.156 364.336 228.555 365.477 229.352 366.375C230.156 367.273 231.141 367.723 232.305 367.723C233.414 367.723 234.559 367.523 235.738 367.125L236.055 368.59C234.977 369.074 233.719 369.316 232.281 369.316C230.469 369.316 229.008 368.734 227.898 367.57C226.789 366.406 226.234 364.836 226.234 362.859C226.234 360.922 226.73 359.379 227.723 358.23C228.723 357.074 230.012 356.496 231.59 356.496C232.996 356.496 234.172 357.031 235.117 358.102C236.062 359.172 236.535 360.598 236.535 362.379V362.953ZM234.543 361.465C234.543 360.512 234.246 359.711 233.652 359.062C233.059 358.406 232.395 358.078 231.66 358.078C230.715 358.078 229.93 358.391 229.305 359.016C228.688 359.641 228.344 360.457 228.273 361.465H234.543ZM265.363 362.953H256.984C256.984 364.336 257.383 365.477 258.18 366.375C258.984 367.273 259.969 367.723 261.133 367.723C262.242 367.723 263.387 367.523 264.566 367.125L264.883 368.59C263.805 369.074 262.547 369.316 261.109 369.316C259.297 369.316 257.836 368.734 256.727 367.57C255.617 366.406 255.062 364.836 255.062 362.859C255.062 360.922 255.559 359.379 256.551 358.23C257.551 357.074 258.84 356.496 260.418 356.496C261.824 356.496 263 357.031 263.945 358.102C264.891 359.172 265.363 360.598 265.363 362.379V362.953ZM263.371 361.465C263.371 360.512 263.074 359.711 262.48 359.062C261.887 358.406 261.223 358.078 260.488 358.078C259.543 358.078 258.758 358.391 258.133 359.016C257.516 359.641 257.172 360.457 257.102 361.465H263.371ZM279.414 369H277.586V361.172C277.586 360.086 277.41 359.301 277.059 358.816C276.715 358.324 276.172 358.078 275.43 358.078C274.312 358.078 273.113 358.773 271.832 360.164V369H270.004V356.789H271.832V358.582C273.145 357.191 274.527 356.496 275.98 356.496C278.27 356.496 279.414 357.879 279.414 360.645V369ZM308.359 352.652L307.879 354.141C307.012 353.891 306.234 353.766 305.547 353.766C304.891 353.766 304.438 353.953 304.188 354.328C303.945 354.695 303.824 355.441 303.824 356.566V356.789H307.926V358.371H303.824V369H301.996V358.371H298.926V356.789H301.996V356.379C301.996 354.824 302.262 353.734 302.793 353.109C303.324 352.484 304.242 352.172 305.547 352.172C306.391 352.172 307.328 352.332 308.359 352.652ZM317.922 356.496C319.602 356.496 320.938 357.082 321.93 358.254C322.922 359.426 323.418 360.969 323.418 362.883C323.418 364.812 322.922 366.367 321.93 367.547C320.938 368.727 319.602 369.316 317.922 369.316C316.234 369.316 314.895 368.73 313.902 367.559C312.918 366.379 312.426 364.82 312.426 362.883C312.426 360.961 312.922 359.418 313.914 358.254C314.906 357.082 316.242 356.496 317.922 356.496ZM317.922 367.723C319.031 367.723 319.906 367.254 320.547 366.316C321.188 365.379 321.508 364.242 321.508 362.906C321.508 361.5 321.191 360.344 320.559 359.438C319.926 358.531 319.047 358.078 317.922 358.078C316.789 358.078 315.91 358.527 315.285 359.426C314.66 360.316 314.348 361.477 314.348 362.906C314.348 364.266 314.664 365.41 315.297 366.34C315.93 367.262 316.805 367.723 317.922 367.723ZM337.258 357.117L336.52 358.875C335.715 358.523 335.02 358.348 334.434 358.348C333.895 358.348 333.367 358.504 332.852 358.816C332.336 359.121 331.859 359.562 331.422 360.141C330.992 360.711 330.777 361.031 330.777 361.102V369H328.961V356.789H330.777V359.262C331.754 357.418 333.02 356.496 334.574 356.496C335.496 356.496 336.391 356.703 337.258 357.117ZM350.207 358.535C349.184 358.199 348.219 358.031 347.312 358.031C346.32 358.031 345.535 358.199 344.957 358.535C344.379 358.863 344.09 359.305 344.09 359.859C344.09 360.211 344.223 360.52 344.488 360.785C344.754 361.043 345.285 361.285 346.082 361.512L347.828 362.016C348.633 362.242 349.289 362.516 349.797 362.836C350.305 363.148 350.684 363.531 350.934 363.984C351.191 364.43 351.32 364.949 351.32 365.543C351.32 366.707 350.832 367.629 349.855 368.309C348.879 368.98 347.637 369.316 346.129 369.316C344.629 369.316 343.391 369.09 342.414 368.637L342.766 367.055C343.789 367.539 344.887 367.781 346.059 367.781C347.074 367.781 347.898 367.594 348.531 367.219C349.172 366.836 349.492 366.332 349.492 365.707C349.492 365.285 349.332 364.91 349.012 364.582C348.699 364.246 347.957 363.898 346.785 363.539C345.84 363.25 345.145 363.035 344.699 362.895C344.254 362.746 343.84 362.531 343.457 362.25C343.074 361.969 342.781 361.633 342.578 361.242C342.383 360.852 342.285 360.414 342.285 359.93C342.285 358.875 342.746 358.039 343.668 357.422C344.59 356.805 345.812 356.496 347.336 356.496C348.32 356.496 349.414 356.664 350.617 357L350.207 358.535ZM367.094 369H364.691L359.512 362.93L358.316 363.961V369H356.488V352.465H358.316V361.945L364.047 356.789H366.379L360.812 361.781L367.094 369ZM380.676 362.953H372.297C372.297 364.336 372.695 365.477 373.492 366.375C374.297 367.273 375.281 367.723 376.445 367.723C377.555 367.723 378.699 367.523 379.879 367.125L380.195 368.59C379.117 369.074 377.859 369.316 376.422 369.316C374.609 369.316 373.148 368.734 372.039 367.57C370.93 366.406 370.375 364.836 370.375 362.859C370.375 360.922 370.871 359.379 371.863 358.23C372.863 357.074 374.152 356.496 375.73 356.496C377.137 356.496 378.312 357.031 379.258 358.102C380.203 359.172 380.676 360.598 380.676 362.379V362.953ZM378.684 361.465C378.684 360.512 378.387 359.711 377.793 359.062C377.199 358.406 376.535 358.078 375.801 358.078C374.855 358.078 374.07 358.391 373.445 359.016C372.828 359.641 372.484 360.457 372.414 361.465H378.684ZM393.836 369H388.844V354.047H385.656V352.465H390.672V367.418H393.836V369Z" fill="#404E2E" style="fill:#404E2E;fill:color(display-p3 0.2510 0.3059 0.1804);fill-opacity:1;"/>
<path d="M192.93 269H184.234V267.324H187.738V254.48L184.434 256.133V254.211L188.008 252.371H189.66V267.324H192.93V269ZM200.5 259.133C201.031 258.992 201.551 258.922 202.059 258.922C203.621 258.922 204.855 259.402 205.762 260.363C206.668 261.316 207.121 262.508 207.121 263.938C207.121 265.438 206.594 266.711 205.539 267.758C204.484 268.797 203.199 269.316 201.684 269.316C200.238 269.316 199.027 269.074 198.051 268.59L198.438 266.961C199.5 267.406 200.598 267.629 201.73 267.629C202.738 267.629 203.551 267.305 204.168 266.656C204.793 266.008 205.105 265.102 205.105 263.938C205.105 262.836 204.812 261.988 204.227 261.395C203.641 260.801 202.887 260.504 201.965 260.504C201.293 260.504 200.629 260.633 199.973 260.891L198.824 260.363V252.465H206.383V254.141H200.5V259.133ZM236.77 269H234.918V254.82L232.422 261.605H230.605L228.109 254.82V269H226.258V252.465H228.754L231.52 260L234.273 252.465H236.77V269ZM250.891 269H249.074C248.926 268.508 248.852 267.852 248.852 267.031C247.812 268.555 246.398 269.316 244.609 269.316C243.703 269.316 242.902 268.996 242.207 268.355C241.52 267.707 241.176 266.875 241.176 265.859C241.176 265.258 241.297 264.727 241.539 264.266C241.781 263.805 242.137 263.418 242.605 263.105C243.074 262.785 243.645 262.535 244.316 262.355C244.988 262.168 245.785 262.039 246.707 261.969L248.758 261.805V261.219C248.758 259.125 247.781 258.078 245.828 258.078C245.367 258.078 244.781 258.18 244.07 258.383C243.367 258.578 242.762 258.812 242.254 259.086L241.773 257.773C243.438 256.922 244.984 256.496 246.414 256.496C249.195 256.496 250.586 257.969 250.586 260.914V266.164C250.586 267.227 250.688 268.172 250.891 269ZM248.758 265.379V263.164C247.109 263.312 245.977 263.453 245.359 263.586C244.75 263.711 244.219 263.949 243.766 264.301C243.32 264.652 243.098 265.129 243.098 265.73C243.098 266.277 243.289 266.719 243.672 267.055C244.055 267.391 244.543 267.559 245.137 267.559C245.785 267.559 246.43 267.367 247.07 266.984C247.711 266.594 248.273 266.059 248.758 265.379ZM265.188 257.117L264.449 258.875C263.645 258.523 262.949 258.348 262.363 258.348C261.824 258.348 261.297 258.504 260.781 258.816C260.266 259.121 259.789 259.562 259.352 260.141C258.922 260.711 258.707 261.031 258.707 261.102V269H256.891V256.789H258.707V259.262C259.684 257.418 260.949 256.496 262.504 256.496C263.426 256.496 264.32 256.703 265.188 257.117ZM279.531 268.449C278.305 269.012 277.098 269.293 275.91 269.293C273.73 269.293 272.641 268.141 272.641 265.836V258.371H270.297V256.789H272.641V253.449H274.422V256.789H278.57V258.371H274.422V265.355C274.422 266.098 274.586 266.676 274.914 267.09C275.242 267.496 275.688 267.699 276.25 267.699C277.25 267.699 278.238 267.477 279.215 267.031L279.531 268.449ZM292.551 258.535C291.527 258.199 290.562 258.031 289.656 258.031C288.664 258.031 287.879 258.199 287.301 258.535C286.723 258.863 286.434 259.305 286.434 259.859C286.434 260.211 286.566 260.52 286.832 260.785C287.098 261.043 287.629 261.285 288.426 261.512L290.172 262.016C290.977 262.242 291.633 262.516 292.141 262.836C292.648 263.148 293.027 263.531 293.277 263.984C293.535 264.43 293.664 264.949 293.664 265.543C293.664 266.707 293.176 267.629 292.199 268.309C291.223 268.98 289.98 269.316 288.473 269.316C286.973 269.316 285.734 269.09 284.758 268.637L285.109 267.055C286.133 267.539 287.23 267.781 288.402 267.781C289.418 267.781 290.242 267.594 290.875 267.219C291.516 266.836 291.836 266.332 291.836 265.707C291.836 265.285 291.676 264.91 291.355 264.582C291.043 264.246 290.301 263.898 289.129 263.539C288.184 263.25 287.488 263.035 287.043 262.895C286.598 262.746 286.184 262.531 285.801 262.25C285.418 261.969 285.125 261.633 284.922 261.242C284.727 260.852 284.629 260.414 284.629 259.93C284.629 258.875 285.09 258.039 286.012 257.422C286.934 256.805 288.156 256.496 289.68 256.496C290.664 256.496 291.758 256.664 292.961 257L292.551 258.535Z" fill="#9AE600" style="fill:#9AE600;fill:color(display-p3 0.6039 0.9020 0.0000);fill-opacity:1;"/>
</svg>
