<svg width="590" height="589" viewBox="0 0 590 589" fill="none" xmlns="http://www.w3.org/2000/svg">
<path d="M295 294H590C590 456.924 457.924 589 295 589V294Z" fill="#DCFF8D" style="fill:#DCFF8D;fill:color(display-p3 0.8645 1.0000 0.5548);fill-opacity:1;"/>
<path d="M294.207 295.344L294.207 0.344238C457.131 0.344238 589.207 132.42 589.207 295.344L294.207 295.344Z" fill="#F7FEE7" style="fill:#F7FEE7;fill:color(display-p3 0.9686 0.9961 0.9059);fill-opacity:1;"/>
<path d="M295 295L3.05176e-05 295C3.05176e-05 132.076 132.076 3.05176e-05 295 3.05176e-05L295 295Z" fill="#93E371" style="fill:#93E371;fill:color(display-p3 0.5766 0.8893 0.4426);fill-opacity:1;"/>
<path d="M295 294V589C132.076 589 -4.64916e-06 456.924 -4.64916e-06 294H295Z" fill="#93E371" style="fill:#93E371;fill:color(display-p3 0.5766 0.8893 0.4426);fill-opacity:1;"/>
<path d="M340.93 215H332.234V213.324H335.738V200.48L332.434 202.133V200.211L336.008 198.371H337.66V213.324H340.93V215ZM350.633 215.316C350.227 215.27 349.891 215.102 349.625 214.812C349.359 214.523 349.227 214.195 349.227 213.828C349.227 213.43 349.355 213.094 349.613 212.82C349.871 212.547 350.195 212.41 350.586 212.41C351.023 212.41 351.402 212.59 351.723 212.949C352.043 213.301 352.203 213.727 352.203 214.227C352.203 215.758 351.352 216.953 349.648 217.812L349.203 216.969C350.156 216.5 350.633 215.949 350.633 215.316ZM369.758 215H361.062V213.324H364.566V200.48L361.262 202.133V200.211L364.836 198.371H366.488V213.324H369.758V215ZM381.102 205.93C382.227 206.258 383.098 206.816 383.715 207.605C384.34 208.395 384.652 209.316 384.652 210.371C384.652 211.887 384.148 213.09 383.141 213.98C382.141 214.871 380.906 215.316 379.438 215.316C377.898 215.316 376.633 214.867 375.641 213.969C374.656 213.07 374.164 211.879 374.164 210.395C374.164 209.348 374.484 208.426 375.125 207.629C375.766 206.832 376.66 206.266 377.809 205.93C376.895 205.695 376.16 205.246 375.605 204.582C375.059 203.91 374.785 203.16 374.785 202.332C374.785 201.27 375.207 200.309 376.051 199.449C376.895 198.582 378.008 198.148 379.391 198.148C380.758 198.148 381.887 198.578 382.777 199.438C383.676 200.297 384.125 201.262 384.125 202.332C384.125 203.137 383.844 203.879 383.281 204.559C382.719 205.23 381.992 205.688 381.102 205.93ZM379.391 205.133C379.43 205.133 379.617 205.086 379.953 204.992C380.289 204.898 380.574 204.785 380.809 204.652C381.051 204.512 381.273 204.336 381.477 204.125C381.68 203.914 381.844 203.668 381.969 203.387C382.094 203.098 382.156 202.777 382.156 202.426C382.156 201.676 381.887 201.055 381.348 200.562C380.809 200.062 380.156 199.812 379.391 199.812C378.648 199.812 378.012 200.066 377.48 200.574C376.949 201.082 376.684 201.699 376.684 202.426C376.684 202.887 376.777 203.289 376.965 203.633C377.16 203.977 377.398 204.254 377.68 204.465C377.969 204.676 378.297 204.84 378.664 204.957C379.039 205.074 379.281 205.133 379.391 205.133ZM379.391 206.773C377.25 207.398 376.18 208.574 376.18 210.301C376.18 211.309 376.504 212.117 377.152 212.727C377.801 213.328 378.562 213.629 379.438 213.629C380.344 213.629 381.105 213.332 381.723 212.738C382.348 212.137 382.66 211.324 382.66 210.301C382.66 209.527 382.445 208.836 382.016 208.227C381.586 207.609 380.711 207.125 379.391 206.773ZM399.23 211.18H397.191V215H395.27V211.18H388.074V209.715L394.602 198.465H397.191V209.504H399.23V211.18ZM395.27 209.504V200.363L390.02 209.504H395.27ZM408.289 215.316C407.883 215.27 407.547 215.102 407.281 214.812C407.016 214.523 406.883 214.195 406.883 213.828C406.883 213.43 407.012 213.094 407.27 212.82C407.527 212.547 407.852 212.41 408.242 212.41C408.68 212.41 409.059 212.59 409.379 212.949C409.699 213.301 409.859 213.727 409.859 214.227C409.859 215.758 409.008 216.953 407.305 217.812L406.859 216.969C407.812 216.5 408.289 215.949 408.289 215.316ZM427.625 199.836L421.074 215H419.105L425.562 200.141H417.816V198.465H427.625V199.836ZM442.473 211.18H440.434V215H438.512V211.18H431.316V209.715L437.844 198.465H440.434V209.504H442.473V211.18ZM438.512 209.504V200.363L433.262 209.504H438.512ZM456.453 199.836L449.902 215H447.934L454.391 200.141H446.645V198.465H456.453V199.836ZM340.883 265H339.055V263.242C338.68 263.844 338.141 264.34 337.438 264.73C336.742 265.121 336.008 265.316 335.234 265.316C333.836 265.316 332.73 264.695 331.918 263.453C331.105 262.203 330.699 260.621 330.699 258.707C330.699 256.918 331.121 255.438 331.965 254.266C332.816 253.086 333.941 252.496 335.34 252.496C336.879 252.496 338.117 253.121 339.055 254.371V248.465H340.883V265ZM339.055 261.262V256.188C338.18 254.781 337.125 254.078 335.891 254.078C334.883 254.078 334.086 254.527 333.5 255.426C332.914 256.316 332.621 257.445 332.621 258.812C332.621 260.219 332.895 261.383 333.441 262.305C333.996 263.219 334.754 263.676 335.715 263.676C336.176 263.676 336.641 263.551 337.109 263.301C337.578 263.051 338.02 262.676 338.434 262.176C338.848 261.676 339.055 261.371 339.055 261.262ZM355.707 258.953H347.328C347.328 260.336 347.727 261.477 348.523 262.375C349.328 263.273 350.312 263.723 351.477 263.723C352.586 263.723 353.73 263.523 354.91 263.125L355.227 264.59C354.148 265.074 352.891 265.316 351.453 265.316C349.641 265.316 348.18 264.734 347.07 263.57C345.961 262.406 345.406 260.836 345.406 258.859C345.406 256.922 345.902 255.379 346.895 254.23C347.895 253.074 349.184 252.496 350.762 252.496C352.168 252.496 353.344 253.031 354.289 254.102C355.234 255.172 355.707 256.598 355.707 258.379V258.953ZM353.715 257.465C353.715 256.512 353.418 255.711 352.824 255.062C352.23 254.406 351.566 254.078 350.832 254.078C349.887 254.078 349.102 254.391 348.477 255.016C347.859 255.641 347.516 256.457 347.445 257.465H353.715ZM368.867 265H363.875V250.047H360.688V248.465H365.703V263.418H368.867V265ZM384.289 264.449C383.062 265.012 381.855 265.293 380.668 265.293C378.488 265.293 377.398 264.141 377.398 261.836V254.371H375.055V252.789H377.398V249.449H379.18V252.789H383.328V254.371H379.18V261.355C379.18 262.098 379.344 262.676 379.672 263.09C380 263.496 380.445 263.699 381.008 263.699C382.008 263.699 382.996 263.477 383.973 263.031L384.289 264.449ZM398.891 265H397.074C396.926 264.508 396.852 263.852 396.852 263.031C395.812 264.555 394.398 265.316 392.609 265.316C391.703 265.316 390.902 264.996 390.207 264.355C389.52 263.707 389.176 262.875 389.176 261.859C389.176 261.258 389.297 260.727 389.539 260.266C389.781 259.805 390.137 259.418 390.605 259.105C391.074 258.785 391.645 258.535 392.316 258.355C392.988 258.168 393.785 258.039 394.707 257.969L396.758 257.805V257.219C396.758 255.125 395.781 254.078 393.828 254.078C393.367 254.078 392.781 254.18 392.07 254.383C391.367 254.578 390.762 254.812 390.254 255.086L389.773 253.773C391.438 252.922 392.984 252.496 394.414 252.496C397.195 252.496 398.586 253.969 398.586 256.914V262.164C398.586 263.227 398.688 264.172 398.891 265ZM396.758 261.379V259.164C395.109 259.312 393.977 259.453 393.359 259.586C392.75 259.711 392.219 259.949 391.766 260.301C391.32 260.652 391.098 261.129 391.098 261.73C391.098 262.277 391.289 262.719 391.672 263.055C392.055 263.391 392.543 263.559 393.137 263.559C393.785 263.559 394.43 263.367 395.07 262.984C395.711 262.594 396.273 262.059 396.758 261.379ZM406.977 260.395C405.836 260.949 405.266 261.438 405.266 261.859C405.266 262.086 405.395 262.277 405.652 262.434C405.918 262.59 406.277 262.668 406.73 262.668L410.844 262.551C411.82 262.551 412.578 262.789 413.117 263.266C413.664 263.742 413.938 264.418 413.938 265.293C413.938 266.676 413.32 267.777 412.086 268.598C410.852 269.418 409.41 269.828 407.762 269.828C406.41 269.828 405.305 269.543 404.445 268.973C403.586 268.41 403.156 267.68 403.156 266.781C403.156 265.805 403.82 264.98 405.148 264.309C404.047 263.793 403.496 263.16 403.496 262.41C403.496 261.551 404.207 260.75 405.629 260.008C404.973 259.609 404.469 259.094 404.117 258.461C403.766 257.828 403.59 257.16 403.59 256.457C403.59 255.309 403.98 254.367 404.762 253.633C405.543 252.891 406.52 252.52 407.691 252.52C408.535 252.52 409.297 252.695 409.977 253.047L413.598 252.496V254.277H411.266C411.617 254.895 411.793 255.621 411.793 256.457C411.793 257.566 411.406 258.504 410.633 259.27C409.859 260.035 408.879 260.418 407.691 260.418C407.441 260.418 407.203 260.41 406.977 260.395ZM407.691 259C408.363 259 408.91 258.77 409.332 258.309C409.762 257.84 409.977 257.23 409.977 256.48C409.977 255.691 409.77 255.074 409.355 254.629C408.941 254.184 408.387 253.961 407.691 253.961C407.043 253.961 406.496 254.195 406.051 254.664C405.613 255.125 405.395 255.73 405.395 256.48C405.395 257.215 405.613 257.82 406.051 258.297C406.496 258.766 407.043 259 407.691 259ZM407.762 268.41C408.965 268.41 409.988 268.141 410.832 267.602C411.684 267.07 412.109 266.41 412.109 265.621C412.109 264.809 411.508 264.402 410.305 264.402C409.906 264.402 409.219 264.426 408.242 264.473C407.625 264.504 407.141 264.52 406.789 264.52C406.617 264.52 406.348 264.66 405.98 264.941C405.621 265.223 405.344 265.504 405.148 265.785C404.961 266.074 404.867 266.371 404.867 266.676C404.867 267.152 405.133 267.559 405.664 267.895C406.195 268.238 406.895 268.41 407.762 268.41ZM427.777 258.953H419.398C419.398 260.336 419.797 261.477 420.594 262.375C421.398 263.273 422.383 263.723 423.547 263.723C424.656 263.723 425.801 263.523 426.98 263.125L427.297 264.59C426.219 265.074 424.961 265.316 423.523 265.316C421.711 265.316 420.25 264.734 419.141 263.57C418.031 262.406 417.477 260.836 417.477 258.859C417.477 256.922 417.973 255.379 418.965 254.23C419.965 253.074 421.254 252.496 422.832 252.496C424.238 252.496 425.414 253.031 426.359 254.102C427.305 255.172 427.777 256.598 427.777 258.379V258.953ZM425.785 257.465C425.785 256.512 425.488 255.711 424.895 255.062C424.301 254.406 423.637 254.078 422.902 254.078C421.957 254.078 421.172 254.391 420.547 255.016C419.93 255.641 419.586 256.457 419.516 257.465H425.785ZM442.016 253.117L441.277 254.875C440.473 254.523 439.777 254.348 439.191 254.348C438.652 254.348 438.125 254.504 437.609 254.816C437.094 255.121 436.617 255.562 436.18 256.141C435.75 256.711 435.535 257.031 435.535 257.102V265H433.719V252.789H435.535V255.262C436.512 253.418 437.777 252.496 439.332 252.496C440.254 252.496 441.148 252.703 442.016 253.117ZM456.605 258.953H448.227C448.227 260.336 448.625 261.477 449.422 262.375C450.227 263.273 451.211 263.723 452.375 263.723C453.484 263.723 454.629 263.523 455.809 263.125L456.125 264.59C455.047 265.074 453.789 265.316 452.352 265.316C450.539 265.316 449.078 264.734 447.969 263.57C446.859 262.406 446.305 260.836 446.305 258.859C446.305 256.922 446.801 255.379 447.793 254.23C448.793 253.074 450.082 252.496 451.66 252.496C453.066 252.496 454.242 253.031 455.188 254.102C456.133 255.172 456.605 256.598 456.605 258.379V258.953ZM454.613 257.465C454.613 256.512 454.316 255.711 453.723 255.062C453.129 254.406 452.465 254.078 451.73 254.078C450.785 254.078 450 254.391 449.375 255.016C448.758 255.641 448.414 256.457 448.344 257.465H454.613Z" fill="#404E2E" style="fill:#404E2E;fill:color(display-p3 0.2510 0.3059 0.1804);fill-opacity:1;"/>
<path d="M331.227 358.117C332.234 358.398 333.043 358.914 333.652 359.664C334.262 360.406 334.566 361.242 334.566 362.172C334.566 363.625 334 364.848 332.867 365.84C331.734 366.824 330.398 367.316 328.859 367.316C327.547 367.316 326.371 367.027 325.332 366.449L325.707 364.867C326.793 365.375 327.867 365.629 328.93 365.629C329.93 365.629 330.781 365.32 331.484 364.703C332.195 364.078 332.551 363.277 332.551 362.301C332.551 361.34 332.172 360.559 331.414 359.957C330.656 359.355 329.652 359.055 328.402 359.055H327.898V357.473H328.039C329.242 357.473 330.234 357.191 331.016 356.629C331.797 356.059 332.188 355.293 332.188 354.332C332.188 353.551 331.906 352.941 331.344 352.504C330.781 352.059 330.008 351.836 329.023 351.836C328.172 351.836 327.219 352.066 326.164 352.527L325.906 350.875C326.969 350.391 328.039 350.148 329.117 350.148C330.594 350.148 331.809 350.539 332.762 351.32C333.723 352.094 334.203 353.09 334.203 354.309C334.203 355.152 333.91 355.941 333.324 356.676C332.746 357.402 332.047 357.859 331.227 358.047V358.117ZM344.539 364.316C344.953 364.316 345.301 364.457 345.582 364.738C345.863 365.02 346.004 365.367 346.004 365.781C346.004 366.203 345.859 366.566 345.57 366.871C345.289 367.168 344.945 367.316 344.539 367.316C344.141 367.316 343.801 367.168 343.52 366.871C343.238 366.566 343.098 366.203 343.098 365.781C343.098 365.359 343.234 365.012 343.508 364.738C343.789 364.457 344.133 364.316 344.539 364.316ZM356.07 358.387C357.102 357.551 358.223 357.133 359.434 357.133C360.832 357.133 361.996 357.582 362.926 358.48C363.863 359.371 364.332 360.523 364.332 361.938C364.332 363.492 363.918 364.777 363.09 365.793C362.262 366.809 361.156 367.316 359.773 367.316C358.008 367.316 356.609 366.508 355.578 364.891C354.547 363.266 354.031 361.281 354.031 358.938C354.031 356.438 354.566 354.348 355.637 352.668C356.715 350.988 358.188 350.148 360.055 350.148C361.344 350.148 362.457 350.34 363.395 350.723L363.09 352.434C362.004 352.035 361.012 351.836 360.113 351.836C358.84 351.836 357.848 352.445 357.137 353.664C356.426 354.883 356.07 356.457 356.07 358.387ZM356.129 360.039C356.129 361.453 356.461 362.738 357.125 363.895C357.789 365.051 358.625 365.629 359.633 365.629C360.484 365.629 361.141 365.316 361.602 364.691C362.062 364.066 362.293 363.203 362.293 362.102C362.293 361.086 362.039 360.285 361.531 359.699C361.023 359.113 360.309 358.82 359.387 358.82C358.191 358.82 357.105 359.227 356.129 360.039ZM374.469 358.117C375.477 358.398 376.285 358.914 376.895 359.664C377.504 360.406 377.809 361.242 377.809 362.172C377.809 363.625 377.242 364.848 376.109 365.84C374.977 366.824 373.641 367.316 372.102 367.316C370.789 367.316 369.613 367.027 368.574 366.449L368.949 364.867C370.035 365.375 371.109 365.629 372.172 365.629C373.172 365.629 374.023 365.32 374.727 364.703C375.438 364.078 375.793 363.277 375.793 362.301C375.793 361.34 375.414 360.559 374.656 359.957C373.898 359.355 372.895 359.055 371.645 359.055H371.141V357.473H371.281C372.484 357.473 373.477 357.191 374.258 356.629C375.039 356.059 375.43 355.293 375.43 354.332C375.43 353.551 375.148 352.941 374.586 352.504C374.023 352.059 373.25 351.836 372.266 351.836C371.414 351.836 370.461 352.066 369.406 352.527L369.148 350.875C370.211 350.391 371.281 350.148 372.359 350.148C373.836 350.148 375.051 350.539 376.004 351.32C376.965 352.094 377.445 353.09 377.445 354.309C377.445 355.152 377.152 355.941 376.566 356.676C375.988 357.402 375.289 357.859 374.469 358.047V358.117ZM407.117 366.449C405.891 367.012 404.684 367.293 403.496 367.293C401.316 367.293 400.227 366.141 400.227 363.836V356.371H397.883V354.789H400.227V351.449H402.008V354.789H406.156V356.371H402.008V363.355C402.008 364.098 402.172 364.676 402.5 365.09C402.828 365.496 403.273 365.699 403.836 365.699C404.836 365.699 405.824 365.477 406.801 365.031L407.117 366.449ZM416.68 354.496C418.359 354.496 419.695 355.082 420.688 356.254C421.68 357.426 422.176 358.969 422.176 360.883C422.176 362.812 421.68 364.367 420.688 365.547C419.695 366.727 418.359 367.316 416.68 367.316C414.992 367.316 413.652 366.73 412.66 365.559C411.676 364.379 411.184 362.82 411.184 360.883C411.184 358.961 411.68 357.418 412.672 356.254C413.664 355.082 415 354.496 416.68 354.496ZM416.68 365.723C417.789 365.723 418.664 365.254 419.305 364.316C419.945 363.379 420.266 362.242 420.266 360.906C420.266 359.5 419.949 358.344 419.316 357.438C418.684 356.531 417.805 356.078 416.68 356.078C415.547 356.078 414.668 356.527 414.043 357.426C413.418 358.316 413.105 359.477 413.105 360.906C413.105 362.266 413.422 363.41 414.055 364.34C414.688 365.262 415.562 365.723 416.68 365.723ZM435.828 367H434V359.172C434 358.086 433.824 357.301 433.473 356.816C433.129 356.324 432.586 356.078 431.844 356.078C430.727 356.078 429.527 356.773 428.246 358.164V367H426.418V354.789H428.246V356.582C429.559 355.191 430.941 354.496 432.395 354.496C434.684 354.496 435.828 355.879 435.828 358.645V367ZM464.961 367H463.145C462.996 366.508 462.922 365.852 462.922 365.031C461.883 366.555 460.469 367.316 458.68 367.316C457.773 367.316 456.973 366.996 456.277 366.355C455.59 365.707 455.246 364.875 455.246 363.859C455.246 363.258 455.367 362.727 455.609 362.266C455.852 361.805 456.207 361.418 456.676 361.105C457.145 360.785 457.715 360.535 458.387 360.355C459.059 360.168 459.855 360.039 460.777 359.969L462.828 359.805V359.219C462.828 357.125 461.852 356.078 459.898 356.078C459.438 356.078 458.852 356.18 458.141 356.383C457.438 356.578 456.832 356.812 456.324 357.086L455.844 355.773C457.508 354.922 459.055 354.496 460.484 354.496C463.266 354.496 464.656 355.969 464.656 358.914V364.164C464.656 365.227 464.758 366.172 464.961 367ZM462.828 363.379V361.164C461.18 361.312 460.047 361.453 459.43 361.586C458.82 361.711 458.289 361.949 457.836 362.301C457.391 362.652 457.168 363.129 457.168 363.73C457.168 364.277 457.359 364.719 457.742 365.055C458.125 365.391 458.613 365.559 459.207 365.559C459.855 365.559 460.5 365.367 461.141 364.984C461.781 364.594 462.344 364.059 462.828 363.379ZM479.188 350.652L478.707 352.141C477.84 351.891 477.062 351.766 476.375 351.766C475.719 351.766 475.266 351.953 475.016 352.328C474.773 352.695 474.652 353.441 474.652 354.566V354.789H478.754V356.371H474.652V367H472.824V356.371H469.754V354.789H472.824V354.379C472.824 352.824 473.09 351.734 473.621 351.109C474.152 350.484 475.07 350.172 476.375 350.172C477.219 350.172 478.156 350.332 479.188 350.652ZM508.52 365.969C507.223 366.867 505.719 367.316 504.008 367.316C501.867 367.316 500.238 366.582 499.121 365.113C498.012 363.645 497.457 361.52 497.457 358.738C497.457 356.051 497.996 353.949 499.074 352.434C500.152 350.91 501.797 350.148 504.008 350.148C504.805 350.148 505.594 350.25 506.375 350.453C507.156 350.656 507.785 350.926 508.262 351.262L507.629 352.773C506.527 352.148 505.32 351.836 504.008 351.836C502.484 351.836 501.352 352.391 500.609 353.5C499.867 354.602 499.496 356.348 499.496 358.738C499.496 363.332 501 365.629 504.008 365.629C505.281 365.629 506.586 365.238 507.922 364.457L508.52 365.969ZM517.555 350.148C519.406 350.148 520.816 350.883 521.785 352.352C522.762 353.812 523.25 355.941 523.25 358.738C523.25 361.52 522.766 363.645 521.797 365.113C520.828 366.582 519.414 367.316 517.555 367.316C515.711 367.316 514.301 366.586 513.324 365.125C512.355 363.656 511.871 361.527 511.871 358.738C511.871 355.949 512.355 353.82 513.324 352.352C514.293 350.883 515.703 350.148 517.555 350.148ZM517.555 365.629C519.992 365.629 521.211 363.332 521.211 358.738C521.211 354.137 519.992 351.836 517.555 351.836C516.367 351.836 515.461 352.434 514.836 353.629C514.219 354.816 513.91 356.52 513.91 358.738C513.91 360.98 514.219 362.691 514.836 363.871C515.453 365.043 516.359 365.629 517.555 365.629ZM536.293 367H527.199V365.605C529.504 363.035 531 361.312 531.688 360.438C532.375 359.562 532.934 358.645 533.363 357.684C533.793 356.723 534.008 355.766 534.008 354.812C534.008 353.891 533.727 353.164 533.164 352.633C532.609 352.102 531.828 351.836 530.82 351.836C530.047 351.836 529.008 352.074 527.703 352.551L527.434 350.898C528.613 350.398 529.848 350.148 531.137 350.148C532.613 350.148 533.801 350.566 534.699 351.402C535.605 352.23 536.059 353.34 536.059 354.73C536.059 355.723 535.824 356.707 535.355 357.684C534.895 358.66 534.301 359.598 533.574 360.496C532.848 361.395 531.434 363.004 529.332 365.324H536.293V367ZM333.652 406.535C332.629 406.199 331.664 406.031 330.758 406.031C329.766 406.031 328.98 406.199 328.402 406.535C327.824 406.863 327.535 407.305 327.535 407.859C327.535 408.211 327.668 408.52 327.934 408.785C328.199 409.043 328.73 409.285 329.527 409.512L331.273 410.016C332.078 410.242 332.734 410.516 333.242 410.836C333.75 411.148 334.129 411.531 334.379 411.984C334.637 412.43 334.766 412.949 334.766 413.543C334.766 414.707 334.277 415.629 333.301 416.309C332.324 416.98 331.082 417.316 329.574 417.316C328.074 417.316 326.836 417.09 325.859 416.637L326.211 415.055C327.234 415.539 328.332 415.781 329.504 415.781C330.52 415.781 331.344 415.594 331.977 415.219C332.617 414.836 332.938 414.332 332.938 413.707C332.938 413.285 332.777 412.91 332.457 412.582C332.145 412.246 331.402 411.898 330.23 411.539C329.285 411.25 328.59 411.035 328.145 410.895C327.699 410.746 327.285 410.531 326.902 410.25C326.52 409.969 326.227 409.633 326.023 409.242C325.828 408.852 325.73 408.414 325.73 407.93C325.73 406.875 326.191 406.039 327.113 405.422C328.035 404.805 329.258 404.496 330.781 404.496C331.766 404.496 332.859 404.664 334.062 405L333.652 406.535ZM348.453 417H343.461V402.047H340.273V400.465H345.289V415.418H348.453V417ZM364.121 410.953H355.742C355.742 412.336 356.141 413.477 356.938 414.375C357.742 415.273 358.727 415.723 359.891 415.723C361 415.723 362.145 415.523 363.324 415.125L363.641 416.59C362.562 417.074 361.305 417.316 359.867 417.316C358.055 417.316 356.594 416.734 355.484 415.57C354.375 414.406 353.82 412.836 353.82 410.859C353.82 408.922 354.316 407.379 355.309 406.23C356.309 405.074 357.598 404.496 359.176 404.496C360.582 404.496 361.758 405.031 362.703 406.102C363.648 407.172 364.121 408.598 364.121 410.379V410.953ZM362.129 409.465C362.129 408.512 361.832 407.711 361.238 407.062C360.645 406.406 359.98 406.078 359.246 406.078C358.301 406.078 357.516 406.391 356.891 407.016C356.273 407.641 355.93 408.457 355.859 409.465H362.129ZM378.289 416.449C377.062 417.012 375.855 417.293 374.668 417.293C372.488 417.293 371.398 416.141 371.398 413.836V406.371H369.055V404.789H371.398V401.449H373.18V404.789H377.328V406.371H373.18V413.355C373.18 414.098 373.344 414.676 373.672 415.09C374 415.496 374.445 415.699 375.008 415.699C376.008 415.699 376.996 415.477 377.973 415.031L378.289 416.449ZM392.703 416.449C391.477 417.012 390.27 417.293 389.082 417.293C386.902 417.293 385.812 416.141 385.812 413.836V406.371H383.469V404.789H385.812V401.449H387.594V404.789H391.742V406.371H387.594V413.355C387.594 414.098 387.758 414.676 388.086 415.09C388.414 415.496 388.859 415.699 389.422 415.699C390.422 415.699 391.41 415.477 392.387 415.031L392.703 416.449ZM407.363 410.953H398.984C398.984 412.336 399.383 413.477 400.18 414.375C400.984 415.273 401.969 415.723 403.133 415.723C404.242 415.723 405.387 415.523 406.566 415.125L406.883 416.59C405.805 417.074 404.547 417.316 403.109 417.316C401.297 417.316 399.836 416.734 398.727 415.57C397.617 414.406 397.062 412.836 397.062 410.859C397.062 408.922 397.559 407.379 398.551 406.23C399.551 405.074 400.84 404.496 402.418 404.496C403.824 404.496 405 405.031 405.945 406.102C406.891 407.172 407.363 408.598 407.363 410.379V410.953ZM405.371 409.465C405.371 408.512 405.074 407.711 404.48 407.062C403.887 406.406 403.223 406.078 402.488 406.078C401.543 406.078 400.758 406.391 400.133 407.016C399.516 407.641 399.172 408.457 399.102 409.465H405.371ZM421.531 416.449C420.305 417.012 419.098 417.293 417.91 417.293C415.73 417.293 414.641 416.141 414.641 413.836V406.371H412.297V404.789H414.641V401.449H416.422V404.789H420.57V406.371H416.422V413.355C416.422 414.098 416.586 414.676 416.914 415.09C417.242 415.496 417.688 415.699 418.25 415.699C419.25 415.699 420.238 415.477 421.215 415.031L421.531 416.449ZM450.547 417H448.73C448.582 416.508 448.508 415.852 448.508 415.031C447.469 416.555 446.055 417.316 444.266 417.316C443.359 417.316 442.559 416.996 441.863 416.355C441.176 415.707 440.832 414.875 440.832 413.859C440.832 413.258 440.953 412.727 441.195 412.266C441.438 411.805 441.793 411.418 442.262 411.105C442.73 410.785 443.301 410.535 443.973 410.355C444.645 410.168 445.441 410.039 446.363 409.969L448.414 409.805V409.219C448.414 407.125 447.438 406.078 445.484 406.078C445.023 406.078 444.438 406.18 443.727 406.383C443.023 406.578 442.418 406.812 441.91 407.086L441.43 405.773C443.094 404.922 444.641 404.496 446.07 404.496C448.852 404.496 450.242 405.969 450.242 408.914V414.164C450.242 415.227 450.344 416.172 450.547 417ZM448.414 413.379V411.164C446.766 411.312 445.633 411.453 445.016 411.586C444.406 411.711 443.875 411.949 443.422 412.301C442.977 412.652 442.754 413.129 442.754 413.73C442.754 414.277 442.945 414.719 443.328 415.055C443.711 415.391 444.199 415.559 444.793 415.559C445.441 415.559 446.086 415.367 446.727 414.984C447.367 414.594 447.93 414.059 448.414 413.379ZM445.824 398.859C446.434 398.859 446.957 399.082 447.395 399.527C447.84 399.965 448.062 400.484 448.062 401.086C448.062 401.695 447.84 402.223 447.395 402.668C446.957 403.105 446.434 403.324 445.824 403.324C445.215 403.324 444.691 403.105 444.254 402.668C443.816 402.223 443.598 401.695 443.598 401.086C443.598 400.484 443.816 399.965 444.254 399.527C444.691 399.082 445.215 398.859 445.824 398.859ZM445.824 402.41C446.184 402.41 446.492 402.281 446.75 402.023C447.016 401.758 447.148 401.445 447.148 401.086C447.148 400.734 447.016 400.43 446.75 400.172C446.492 399.906 446.184 399.773 445.824 399.773C445.473 399.773 445.164 399.906 444.898 400.172C444.641 400.43 444.512 400.734 444.512 401.086C444.512 401.453 444.641 401.766 444.898 402.023C445.156 402.281 445.465 402.41 445.824 402.41ZM464.844 405.117L464.105 406.875C463.301 406.523 462.605 406.348 462.02 406.348C461.48 406.348 460.953 406.504 460.438 406.816C459.922 407.121 459.445 407.562 459.008 408.141C458.578 408.711 458.363 409.031 458.363 409.102V417H456.547V404.789H458.363V407.262C459.34 405.418 460.605 404.496 462.16 404.496C463.082 404.496 463.977 404.703 464.844 405.117ZM478.18 417H473.188V402.047H470V400.465H475.016V415.418H478.18V417ZM489.547 400.172C489.891 400.172 490.184 400.297 490.426 400.547C490.668 400.789 490.789 401.082 490.789 401.426C490.789 401.785 490.668 402.086 490.426 402.328C490.191 402.57 489.898 402.691 489.547 402.691C489.227 402.691 488.941 402.566 488.691 402.316C488.449 402.059 488.328 401.762 488.328 401.426C488.328 401.09 488.449 400.797 488.691 400.547C488.941 400.297 489.227 400.172 489.547 400.172ZM490.438 417H488.609V406.371H485.012V404.789H490.438V417ZM501.875 412.395C500.734 412.949 500.164 413.438 500.164 413.859C500.164 414.086 500.293 414.277 500.551 414.434C500.816 414.59 501.176 414.668 501.629 414.668L505.742 414.551C506.719 414.551 507.477 414.789 508.016 415.266C508.562 415.742 508.836 416.418 508.836 417.293C508.836 418.676 508.219 419.777 506.984 420.598C505.75 421.418 504.309 421.828 502.66 421.828C501.309 421.828 500.203 421.543 499.344 420.973C498.484 420.41 498.055 419.68 498.055 418.781C498.055 417.805 498.719 416.98 500.047 416.309C498.945 415.793 498.395 415.16 498.395 414.41C498.395 413.551 499.105 412.75 500.527 412.008C499.871 411.609 499.367 411.094 499.016 410.461C498.664 409.828 498.488 409.16 498.488 408.457C498.488 407.309 498.879 406.367 499.66 405.633C500.441 404.891 501.418 404.52 502.59 404.52C503.434 404.52 504.195 404.695 504.875 405.047L508.496 404.496V406.277H506.164C506.516 406.895 506.691 407.621 506.691 408.457C506.691 409.566 506.305 410.504 505.531 411.27C504.758 412.035 503.777 412.418 502.59 412.418C502.34 412.418 502.102 412.41 501.875 412.395ZM502.59 411C503.262 411 503.809 410.77 504.23 410.309C504.66 409.84 504.875 409.23 504.875 408.48C504.875 407.691 504.668 407.074 504.254 406.629C503.84 406.184 503.285 405.961 502.59 405.961C501.941 405.961 501.395 406.195 500.949 406.664C500.512 407.125 500.293 407.73 500.293 408.48C500.293 409.215 500.512 409.82 500.949 410.297C501.395 410.766 501.941 411 502.59 411ZM502.66 420.41C503.863 420.41 504.887 420.141 505.73 419.602C506.582 419.07 507.008 418.41 507.008 417.621C507.008 416.809 506.406 416.402 505.203 416.402C504.805 416.402 504.117 416.426 503.141 416.473C502.523 416.504 502.039 416.52 501.688 416.52C501.516 416.52 501.246 416.66 500.879 416.941C500.52 417.223 500.242 417.504 500.047 417.785C499.859 418.074 499.766 418.371 499.766 418.676C499.766 419.152 500.031 419.559 500.562 419.895C501.094 420.238 501.793 420.41 502.66 420.41ZM522.43 416.449C521.203 417.012 519.996 417.293 518.809 417.293C516.629 417.293 515.539 416.141 515.539 413.836V406.371H513.195V404.789H515.539V401.449H517.32V404.789H521.469V406.371H517.32V413.355C517.32 414.098 517.484 414.676 517.812 415.09C518.141 415.496 518.586 415.699 519.148 415.699C520.148 415.699 521.137 415.477 522.113 415.031L522.43 416.449Z" fill="#404E2E" style="fill:#404E2E;fill:color(display-p3 0.2510 0.3059 0.1804);fill-opacity:1;"/>
<path d="M66.9297 265H58.2344V263.324H61.7383V250.48L58.4336 252.133V250.211L62.0078 248.371H63.6602V263.324H66.9297V265ZM81.9883 261.18H79.9492V265H78.0273V261.18H70.832V259.715L77.3594 248.465H79.9492V259.504H81.9883V261.18ZM78.0273 259.504V250.363L72.7773 259.504H78.0273ZM90.9531 262.316C91.3672 262.316 91.7148 262.457 91.9961 262.738C92.2773 263.02 92.418 263.367 92.418 263.781C92.418 264.203 92.2734 264.566 91.9844 264.871C91.7031 265.168 91.3594 265.316 90.9531 265.316C90.5547 265.316 90.2148 265.168 89.9336 264.871C89.6523 264.566 89.5117 264.203 89.5117 263.781C89.5117 263.359 89.6484 263.012 89.9219 262.738C90.2031 262.457 90.5469 262.316 90.9531 262.316ZM103.328 255.133C103.859 254.992 104.379 254.922 104.887 254.922C106.449 254.922 107.684 255.402 108.59 256.363C109.496 257.316 109.949 258.508 109.949 259.938C109.949 261.438 109.422 262.711 108.367 263.758C107.312 264.797 106.027 265.316 104.512 265.316C103.066 265.316 101.855 265.074 100.879 264.59L101.266 262.961C102.328 263.406 103.426 263.629 104.559 263.629C105.566 263.629 106.379 263.305 106.996 262.656C107.621 262.008 107.934 261.102 107.934 259.938C107.934 258.836 107.641 257.988 107.055 257.395C106.469 256.801 105.715 256.504 104.793 256.504C104.121 256.504 103.457 256.633 102.801 256.891L101.652 256.363V248.465H109.211V250.141H103.328V255.133ZM139.961 265H138.133V256.984C138.133 255.047 137.773 254.078 137.055 254.078C136.688 254.078 136.281 254.414 135.836 255.086C135.398 255.75 135.18 256.117 135.18 256.188V265H133.363V256.984C133.363 255.047 133 254.078 132.273 254.078C131.914 254.078 131.512 254.414 131.066 255.086C130.629 255.75 130.41 256.117 130.41 256.188V265H128.582V252.789H130.34V254.629C130.684 253.98 131.09 253.465 131.559 253.082C132.035 252.691 132.508 252.496 132.977 252.496C133.469 252.496 133.91 252.691 134.301 253.082C134.691 253.465 134.961 253.98 135.109 254.629C135.453 253.98 135.863 253.465 136.34 253.082C136.816 252.691 137.285 252.496 137.746 252.496C139.223 252.496 139.961 253.816 139.961 256.457V265ZM149.477 248.172C149.82 248.172 150.113 248.297 150.355 248.547C150.598 248.789 150.719 249.082 150.719 249.426C150.719 249.785 150.598 250.086 150.355 250.328C150.121 250.57 149.828 250.691 149.477 250.691C149.156 250.691 148.871 250.566 148.621 250.316C148.379 250.059 148.258 249.762 148.258 249.426C148.258 249.09 148.379 248.797 148.621 248.547C148.871 248.297 149.156 248.172 149.477 248.172ZM150.367 265H148.539V254.371H144.941V252.789H150.367V265ZM166.938 265H161.945V250.047H158.758V248.465H163.773V263.418H166.938V265ZM181.352 265H176.359V250.047H173.172V248.465H178.188V263.418H181.352V265ZM192.719 248.172C193.062 248.172 193.355 248.297 193.598 248.547C193.84 248.789 193.961 249.082 193.961 249.426C193.961 249.785 193.84 250.086 193.598 250.328C193.363 250.57 193.07 250.691 192.719 250.691C192.398 250.691 192.113 250.566 191.863 250.316C191.621 250.059 191.5 249.762 191.5 249.426C191.5 249.09 191.621 248.797 191.863 248.547C192.113 248.297 192.398 248.172 192.719 248.172ZM193.609 265H191.781V254.371H188.184V252.789H193.609V265ZM206.336 252.496C208.016 252.496 209.352 253.082 210.344 254.254C211.336 255.426 211.832 256.969 211.832 258.883C211.832 260.812 211.336 262.367 210.344 263.547C209.352 264.727 208.016 265.316 206.336 265.316C204.648 265.316 203.309 264.73 202.316 263.559C201.332 262.379 200.84 260.82 200.84 258.883C200.84 256.961 201.336 255.418 202.328 254.254C203.32 253.082 204.656 252.496 206.336 252.496ZM206.336 263.723C207.445 263.723 208.32 263.254 208.961 262.316C209.602 261.379 209.922 260.242 209.922 258.906C209.922 257.5 209.605 256.344 208.973 255.438C208.34 254.531 207.461 254.078 206.336 254.078C205.203 254.078 204.324 254.527 203.699 255.426C203.074 256.316 202.762 257.477 202.762 258.906C202.762 260.266 203.078 261.41 203.711 262.34C204.344 263.262 205.219 263.723 206.336 263.723ZM225.484 265H223.656V257.172C223.656 256.086 223.48 255.301 223.129 254.816C222.785 254.324 222.242 254.078 221.5 254.078C220.383 254.078 219.184 254.773 217.902 256.164V265H216.074V252.789H217.902V254.582C219.215 253.191 220.598 252.496 222.051 252.496C224.34 252.496 225.484 253.879 225.484 256.645V265ZM254.91 263.828C253.559 264.82 252.062 265.316 250.422 265.316C248.273 265.316 246.645 264.59 245.535 263.137C244.426 261.676 243.871 259.543 243.871 256.738C243.871 254.027 244.406 251.918 245.477 250.41C246.555 248.902 248.203 248.148 250.422 248.148C251.219 248.148 252.008 248.25 252.789 248.453C253.57 248.656 254.199 248.926 254.676 249.262L254.043 250.773C252.941 250.148 251.734 249.836 250.422 249.836C248.906 249.836 247.773 250.391 247.023 251.5C246.281 252.609 245.91 254.355 245.91 256.738C245.91 261.332 247.414 263.629 250.422 263.629C251.555 263.629 252.41 263.391 252.988 262.914V258.836H250.012V257.172H254.91V263.828ZM265.984 255.93C267.086 256.188 267.949 256.688 268.574 257.43C269.199 258.172 269.512 259.055 269.512 260.078C269.512 261.578 268.965 262.773 267.871 263.664C266.785 264.555 265.477 265 263.945 265H259.246V248.465H263.828C265.422 248.465 266.668 248.816 267.566 249.52C268.465 250.215 268.914 251.199 268.914 252.473C268.914 253.254 268.652 253.949 268.129 254.559C267.613 255.168 266.898 255.609 265.984 255.883V255.93ZM261.168 255.039H263.418C265.77 255.039 266.945 254.199 266.945 252.52C266.945 251.754 266.656 251.168 266.078 250.762C265.5 250.348 264.652 250.141 263.535 250.141H261.168V255.039ZM261.168 263.324H263.348C264.621 263.324 265.629 263.035 266.371 262.457C267.121 261.879 267.496 261.086 267.496 260.078C267.496 259.008 267.129 258.18 266.395 257.594C265.66 257.008 264.598 256.715 263.207 256.715H261.168V263.324ZM67.2344 315H65.418C65.2695 314.508 65.1953 313.852 65.1953 313.031C64.1562 314.555 62.7422 315.316 60.9531 315.316C60.0469 315.316 59.2461 314.996 58.5508 314.355C57.8633 313.707 57.5195 312.875 57.5195 311.859C57.5195 311.258 57.6406 310.727 57.8828 310.266C58.125 309.805 58.4805 309.418 58.9492 309.105C59.418 308.785 59.9883 308.535 60.6602 308.355C61.332 308.168 62.1289 308.039 63.0508 307.969L65.1016 307.805V307.219C65.1016 305.125 64.125 304.078 62.1719 304.078C61.7109 304.078 61.125 304.18 60.4141 304.383C59.7109 304.578 59.1055 304.812 58.5977 305.086L58.1172 303.773C59.7812 302.922 61.3281 302.496 62.7578 302.496C65.5391 302.496 66.9297 303.969 66.9297 306.914V312.164C66.9297 313.227 67.0312 314.172 67.2344 315ZM65.1016 311.379V309.164C63.4531 309.312 62.3203 309.453 61.7031 309.586C61.0938 309.711 60.5625 309.949 60.1094 310.301C59.6641 310.652 59.4414 311.129 59.4414 311.73C59.4414 312.277 59.6328 312.719 60.0156 313.055C60.3984 313.391 60.8867 313.559 61.4805 313.559C62.1289 313.559 62.7734 313.367 63.4141 312.984C64.0547 312.594 64.6172 312.059 65.1016 311.379ZM81.4609 298.652L80.9805 300.141C80.1133 299.891 79.3359 299.766 78.6484 299.766C77.9922 299.766 77.5391 299.953 77.2891 300.328C77.0469 300.695 76.9258 301.441 76.9258 302.566V302.789H81.0273V304.371H76.9258V315H75.0977V304.371H72.0273V302.789H75.0977V302.379C75.0977 300.824 75.3633 299.734 75.8945 299.109C76.4258 298.484 77.3438 298.172 78.6484 298.172C79.4922 298.172 80.4297 298.332 81.4609 298.652ZM108.895 304.535C107.871 304.199 106.906 304.031 106 304.031C105.008 304.031 104.223 304.199 103.645 304.535C103.066 304.863 102.777 305.305 102.777 305.859C102.777 306.211 102.91 306.52 103.176 306.785C103.441 307.043 103.973 307.285 104.77 307.512L106.516 308.016C107.32 308.242 107.977 308.516 108.484 308.836C108.992 309.148 109.371 309.531 109.621 309.984C109.879 310.43 110.008 310.949 110.008 311.543C110.008 312.707 109.52 313.629 108.543 314.309C107.566 314.98 106.324 315.316 104.816 315.316C103.316 315.316 102.078 315.09 101.102 314.637L101.453 313.055C102.477 313.539 103.574 313.781 104.746 313.781C105.762 313.781 106.586 313.594 107.219 313.219C107.859 312.836 108.18 312.332 108.18 311.707C108.18 311.285 108.02 310.91 107.699 310.582C107.387 310.246 106.645 309.898 105.473 309.539C104.527 309.25 103.832 309.035 103.387 308.895C102.941 308.746 102.527 308.531 102.145 308.25C101.762 307.969 101.469 307.633 101.266 307.242C101.07 306.852 100.973 306.414 100.973 305.93C100.973 304.875 101.434 304.039 102.355 303.422C103.277 302.805 104.5 302.496 106.023 302.496C107.008 302.496 108.102 302.664 109.305 303L108.895 304.535ZM123.695 315H118.703V300.047H115.516V298.465H120.531V313.418H123.695V315ZM139.363 308.953H130.984C130.984 310.336 131.383 311.477 132.18 312.375C132.984 313.273 133.969 313.723 135.133 313.723C136.242 313.723 137.387 313.523 138.566 313.125L138.883 314.59C137.805 315.074 136.547 315.316 135.109 315.316C133.297 315.316 131.836 314.734 130.727 313.57C129.617 312.406 129.062 310.836 129.062 308.859C129.062 306.922 129.559 305.379 130.551 304.23C131.551 303.074 132.84 302.496 134.418 302.496C135.824 302.496 137 303.031 137.945 304.102C138.891 305.172 139.363 306.598 139.363 308.379V308.953ZM137.371 307.465C137.371 306.512 137.074 305.711 136.48 305.062C135.887 304.406 135.223 304.078 134.488 304.078C133.543 304.078 132.758 304.391 132.133 305.016C131.516 305.641 131.172 306.457 131.102 307.465H137.371ZM153.531 314.449C152.305 315.012 151.098 315.293 149.91 315.293C147.73 315.293 146.641 314.141 146.641 311.836V304.371H144.297V302.789H146.641V299.449H148.422V302.789H152.57V304.371H148.422V311.355C148.422 312.098 148.586 312.676 148.914 313.09C149.242 313.496 149.688 313.699 150.25 313.699C151.25 313.699 152.238 313.477 153.215 313.031L153.531 314.449ZM167.945 314.449C166.719 315.012 165.512 315.293 164.324 315.293C162.145 315.293 161.055 314.141 161.055 311.836V304.371H158.711V302.789H161.055V299.449H162.836V302.789H166.984V304.371H162.836V311.355C162.836 312.098 163 312.676 163.328 313.09C163.656 313.496 164.102 313.699 164.664 313.699C165.664 313.699 166.652 313.477 167.629 313.031L167.945 314.449ZM182.605 308.953H174.227C174.227 310.336 174.625 311.477 175.422 312.375C176.227 313.273 177.211 313.723 178.375 313.723C179.484 313.723 180.629 313.523 181.809 313.125L182.125 314.59C181.047 315.074 179.789 315.316 178.352 315.316C176.539 315.316 175.078 314.734 173.969 313.57C172.859 312.406 172.305 310.836 172.305 308.859C172.305 306.922 172.801 305.379 173.793 304.23C174.793 303.074 176.082 302.496 177.66 302.496C179.066 302.496 180.242 303.031 181.188 304.102C182.133 305.172 182.605 306.598 182.605 308.379V308.953ZM180.613 307.465C180.613 306.512 180.316 305.711 179.723 305.062C179.129 304.406 178.465 304.078 177.73 304.078C176.785 304.078 176 304.391 175.375 305.016C174.758 305.641 174.414 306.457 174.344 307.465H180.613ZM196.773 314.449C195.547 315.012 194.34 315.293 193.152 315.293C190.973 315.293 189.883 314.141 189.883 311.836V304.371H187.539V302.789H189.883V299.449H191.664V302.789H195.812V304.371H191.664V311.355C191.664 312.098 191.828 312.676 192.156 313.09C192.484 313.496 192.93 313.699 193.492 313.699C194.492 313.699 195.48 313.477 196.457 313.031L196.773 314.449ZM225.438 315H223.609V313.242C223.234 313.844 222.695 314.34 221.992 314.73C221.297 315.121 220.562 315.316 219.789 315.316C218.391 315.316 217.285 314.695 216.473 313.453C215.66 312.203 215.254 310.621 215.254 308.707C215.254 306.918 215.676 305.438 216.52 304.266C217.371 303.086 218.496 302.496 219.895 302.496C221.434 302.496 222.672 303.121 223.609 304.371V298.465H225.438V315ZM223.609 311.262V306.188C222.734 304.781 221.68 304.078 220.445 304.078C219.438 304.078 218.641 304.527 218.055 305.426C217.469 306.316 217.176 307.445 217.176 308.812C217.176 310.219 217.449 311.383 217.996 312.305C218.551 313.219 219.309 313.676 220.27 313.676C220.73 313.676 221.195 313.551 221.664 313.301C222.133 313.051 222.574 312.676 222.988 312.176C223.402 311.676 223.609 311.371 223.609 311.262ZM240.203 315H238.387C238.238 314.508 238.164 313.852 238.164 313.031C237.125 314.555 235.711 315.316 233.922 315.316C233.016 315.316 232.215 314.996 231.52 314.355C230.832 313.707 230.488 312.875 230.488 311.859C230.488 311.258 230.609 310.727 230.852 310.266C231.094 309.805 231.449 309.418 231.918 309.105C232.387 308.785 232.957 308.535 233.629 308.355C234.301 308.168 235.098 308.039 236.02 307.969L238.07 307.805V307.219C238.07 305.125 237.094 304.078 235.141 304.078C234.68 304.078 234.094 304.18 233.383 304.383C232.68 304.578 232.074 304.812 231.566 305.086L231.086 303.773C232.75 302.922 234.297 302.496 235.727 302.496C238.508 302.496 239.898 303.969 239.898 306.914V312.164C239.898 313.227 240 314.172 240.203 315ZM238.07 311.379V309.164C236.422 309.312 235.289 309.453 234.672 309.586C234.062 309.711 233.531 309.949 233.078 310.301C232.633 310.652 232.41 311.129 232.41 311.73C232.41 312.277 232.602 312.719 232.984 313.055C233.367 313.391 233.855 313.559 234.449 313.559C235.098 313.559 235.742 313.367 236.383 312.984C237.023 312.594 237.586 312.059 238.07 311.379ZM254.43 314.449C253.203 315.012 251.996 315.293 250.809 315.293C248.629 315.293 247.539 314.141 247.539 311.836V304.371H245.195V302.789H247.539V299.449H249.32V302.789H253.469V304.371H249.32V311.355C249.32 312.098 249.484 312.676 249.812 313.09C250.141 313.496 250.586 313.699 251.148 313.699C252.148 313.699 253.137 313.477 254.113 313.031L254.43 314.449ZM269.031 315H267.215C267.066 314.508 266.992 313.852 266.992 313.031C265.953 314.555 264.539 315.316 262.75 315.316C261.844 315.316 261.043 314.996 260.348 314.355C259.66 313.707 259.316 312.875 259.316 311.859C259.316 311.258 259.438 310.727 259.68 310.266C259.922 309.805 260.277 309.418 260.746 309.105C261.215 308.785 261.785 308.535 262.457 308.355C263.129 308.168 263.926 308.039 264.848 307.969L266.898 307.805V307.219C266.898 305.125 265.922 304.078 263.969 304.078C263.508 304.078 262.922 304.18 262.211 304.383C261.508 304.578 260.902 304.812 260.395 305.086L259.914 303.773C261.578 302.922 263.125 302.496 264.555 302.496C267.336 302.496 268.727 303.969 268.727 306.914V312.164C268.727 313.227 268.828 314.172 269.031 315ZM266.898 311.379V309.164C265.25 309.312 264.117 309.453 263.5 309.586C262.891 309.711 262.359 309.949 261.906 310.301C261.461 310.652 261.238 311.129 261.238 311.73C261.238 312.277 261.43 312.719 261.812 313.055C262.195 313.391 262.684 313.559 263.277 313.559C263.926 313.559 264.57 313.367 265.211 312.984C265.852 312.594 266.414 312.059 266.898 311.379Z" fill="#404E2E" style="fill:#404E2E;fill:color(display-p3 0.2510 0.3059 0.1804);fill-opacity:1;"/>
</svg>
