<svg width="197" height="200" viewBox="0 0 197 200" fill="none" xmlns="http://www.w3.org/2000/svg">
<g clip-path="url(#clip0_29_595)">
<path d="M95.53 19.75C87.09 21.78 79.19 28.42 73.96 40.99C70.33 49.7 63.02 41.32 55.08 45.35C41.86 52.06 45.69 67.23 31.85 85.28C19.88 100.89 12.76 99.5 9.33998 106.33C-23.94 172.91 45.37 195.8 74.68 168.04C76.38 166.43 77.61 177.47 73.23 181.11C69.05 184.57 60.27 184.34 59.44 188.37C57.5 197.81 87.29 204.71 84.12 191.27C79.74 172.69 124.01 125.54 124.05 178.2C124.05 187.32 140.91 173.19 141.47 170.94C143.69 162.13 135.76 164.98 130.9 166.16C126.07 167.33 130.85 151.96 136.38 149.89C141.9 147.83 146.17 152.14 152.35 154.25C171.2 160.67 186.09 139.11 193.01 123.76C201.59 104.72 190.7 71.35 145.82 69.31C137.32 68.92 130.92 70.8 136.26 37.8C138.16 26.05 126.66 33.02 114.23 30.86C100.13 28.41 99.81 18.72 95.53 19.75Z" fill="#9AE600" stroke="#404E2E" style="fill:#9AE600;fill:color(display-p3 0.6039 0.9020 0.0000);fill-opacity:1;stroke:#404E2E;stroke:color(display-p3 0.2510 0.3059 0.1804);stroke-opacity:1;" stroke-miterlimit="10"/>
<path d="M89.28 84.43C86.09 91.17 83.18 95.51 79.4 95.93C74.38 96.49 72.5 90.22 75.9 81.18C78.53 74.2 82.17 68.49 85.78 69.68C90.58 71.27 92.33 77.98 89.28 84.43Z" fill="#EDEDED" style="fill:#EDEDED;fill:color(display-p3 0.9294 0.9294 0.9294);fill-opacity:1;"/>
<path d="M82.61 85.36C82.23 87.24 81.62 87.45 80.03 88.36C79.03 88.94 78.57 87.2 78.84 84.59C79.04 82.7 80.26 82.04 81.41 81.35C82.29 80.82 83.35 81.73 82.61 85.36Z" fill="#404E2E" style="fill:#404E2E;fill:color(display-p3 0.2510 0.3059 0.1804);fill-opacity:1;"/>
<path d="M109.32 90.16C106.13 96.9 103.22 101.24 99.44 101.66C94.42 102.22 92.54 95.95 95.94 86.91C98.57 79.93 102.21 74.22 105.82 75.41C110.62 77 112.37 83.71 109.32 90.16Z" fill="#EDEDED" style="fill:#EDEDED;fill:color(display-p3 0.9294 0.9294 0.9294);fill-opacity:1;"/>
<path d="M102.64 91.1C102.26 92.98 101.65 93.19 100.06 94.1C99.06 94.68 98.6 92.94 98.87 90.33C99.07 88.44 100.29 87.78 101.44 87.09C102.32 86.56 103.38 87.47 102.64 91.1Z" fill="#404E2E" style="fill:#404E2E;fill:color(display-p3 0.2510 0.3059 0.1804);fill-opacity:1;"/>
<path d="M121.41 132.93C68.85 155.88 53.94 89.28 47.17 88.57C33.86 87.17 35.2 85 39.93 70.76C43.11 61.18 21.7 48.71 28.16 43.9C33.32 40.06 41.76 60.15 51.4 66.53C55.13 69 60.32 67.63 62.26 71.06C64.43 74.89 63.51 79.05 64.37 82.08C70.5 103.51 92.06 127.85 119 117.84" fill="#9AE600" style="fill:#9AE600;fill:color(display-p3 0.6039 0.9020 0.0000);fill-opacity:1;"/>
<path d="M121.41 132.93C68.85 155.88 53.94 89.28 47.17 88.57C33.86 87.17 35.2 85 39.93 70.76C43.11 61.18 21.7 48.71 28.16 43.9C33.32 40.06 41.76 60.15 51.4 66.53C55.13 69 60.32 67.63 62.26 71.06C64.43 74.89 63.51 79.05 64.37 82.08C70.5 103.51 92.06 127.85 119 117.84" stroke="#404E2E" style="stroke:#404E2E;stroke:color(display-p3 0.2510 0.3059 0.1804);stroke-opacity:1;" stroke-miterlimit="10"/>
<path d="M103 31.29C106.7 27.36 114.33 21.7 113.99 15.32C113.63 8.62 108.93 5.75 110.21 2.99C113.29 -3.59 145.49 5.02 148.05 4.25C154.28 2.39 137.69 21.1 119.72 7.75C112.77 2.59 115.97 28.33 116.72 36.12" fill="#9AE600" style="fill:#9AE600;fill:color(display-p3 0.6039 0.9020 0.0000);fill-opacity:1;"/>
<path d="M103 31.29C106.7 27.36 114.33 21.7 113.99 15.32C113.63 8.62 108.93 5.75 110.21 2.99C113.29 -3.59 145.49 5.02 148.05 4.25C154.28 2.39 137.69 21.1 119.72 7.75C112.77 2.59 115.97 28.33 116.72 36.12" stroke="#404E2E" style="stroke:#404E2E;stroke:color(display-p3 0.2510 0.3059 0.1804);stroke-opacity:1;" stroke-miterlimit="10"/>
<path d="M141.59 5.92C142.12 7.22 139.11 8.26 138.16 8.54C133.74 9.76 128.63 9.1 124.97 6.26C126.37 6.85 127.78 7.31 129.23 7.62C132.81 8.35 136.62 8.37 140.11 7.23C140.66 7 141.75 6.67 141.59 5.92Z" fill="#404E2E" style="fill:#404E2E;fill:color(display-p3 0.2510 0.3059 0.1804);fill-opacity:1;"/>
</g>
<defs>
<clipPath id="clip0_29_595">
<rect width="196.21" height="199.27" fill="white" style="fill:white;fill-opacity:1;"/>
</clipPath>
</defs>
</svg>
