<svg width="174" height="147" viewBox="0 0 174 147" fill="none" xmlns="http://www.w3.org/2000/svg">
<g clip-path="url(#clip0_29_593)">
<path d="M79.61 18.0663C71.17 20.0963 63.65 17.6763 58.42 30.2463C54.79 38.9563 47.48 30.5763 39.54 34.6063C26.32 41.3163 30.15 56.4863 16.31 74.5363C4.49999 89.9363 5.35999 93.3663 2.09999 100.006C2.00999 100.186 1.92999 100.376 1.85999 100.566C-4.38001 118.296 10.54 143.346 56.14 135.356C57.54 135.106 58.98 135.526 60.06 136.456C89.87 161.996 93.3 127.576 112.42 140.186C117.34 143.426 130.63 141.396 136.82 143.506C153.46 149.176 163.52 130.556 170.42 115.556C172.12 111.866 172.82 107.796 172.49 103.746C169.44 66.0163 170.34 55.4963 130.39 58.5663C130.32 58.5663 130.25 58.5663 130.19 58.5663C121.79 58.1963 115.48 59.9063 120.65 27.5963C120.7 27.2563 120.67 26.8863 120.52 26.5763C116.77 18.5063 110.52 31.3063 98.33 29.1863C84.23 26.7363 83.91 17.0463 79.63 18.0763L79.61 18.0663Z" fill="#9AE600" stroke="#404E2E" style="fill:#9AE600;fill:color(display-p3 0.6039 0.9020 0.0000);fill-opacity:1;stroke:#404E2E;stroke:color(display-p3 0.2510 0.3059 0.1804);stroke-opacity:1;" stroke-miterlimit="10"/>
<path d="M72.42 66.5763C70.76 73.8463 68.86 78.7163 65.26 79.9363C60.47 81.5663 57.29 75.8563 58.65 66.2863C59.7 58.8963 62.03 52.5363 65.81 52.9263C70.84 53.4363 74 59.6163 72.42 66.5763Z" fill="#EDEDED" style="fill:#EDEDED;fill:color(display-p3 0.9294 0.9294 0.9294);fill-opacity:1;"/>
<path d="M66.1 68.9363C66.13 70.8563 65.58 71.1863 64.24 72.4263C63.39 73.2063 62.56 71.6063 62.26 69.0063C62.04 67.1163 63.1 66.2063 64.06 65.2863C64.81 64.5763 66.04 65.2363 66.1 68.9463V68.9363Z" fill="#404E2E" style="fill:#404E2E;fill:color(display-p3 0.2510 0.3059 0.1804);fill-opacity:1;"/>
<path d="M93.22 67.8463C91.56 75.1163 89.66 79.9863 86.06 81.2063C81.27 82.8363 78.09 77.1263 79.45 67.5563C80.5 60.1663 82.83 53.8063 86.61 54.1963C91.64 54.7063 94.8 60.8863 93.22 67.8463Z" fill="#EDEDED" style="fill:#EDEDED;fill:color(display-p3 0.9294 0.9294 0.9294);fill-opacity:1;"/>
<path d="M86.9 70.1964C86.93 72.1164 86.38 72.4464 85.04 73.6864C84.19 74.4664 83.36 72.8664 83.06 70.2664C82.84 68.3764 83.9 67.4664 84.86 66.5464C85.61 65.8364 86.84 66.4964 86.9 70.2064V70.1964Z" fill="#404E2E" style="fill:#404E2E;fill:color(display-p3 0.2510 0.3059 0.1804);fill-opacity:1;"/>
<path d="M97.53 84.9864C97.84 91.3564 93.68 97.4164 87.31 98.7764C80.94 100.136 74.65 96.3364 72.34 90.4364C72.05 89.6964 70.84 90.0164 71.13 90.7664C73.66 97.2064 80.38 101.346 87.3 100.046C94.22 98.7464 99.11 92.0064 98.77 84.9864C98.73 84.1864 97.48 84.1764 97.52 84.9864H97.53Z" fill="#404E2E" style="fill:#404E2E;fill:color(display-p3 0.2510 0.3059 0.1804);fill-opacity:1;"/>
<path d="M83.2 31.29C86.9 27.36 94.53 21.7 94.19 15.32C93.83 8.62 89.13 5.75 90.41 2.99C93.49 -3.59 125.69 5.02 128.25 4.25C134.48 2.39 117.89 21.1 99.92 7.75C92.97 2.59 96.17 28.33 96.92 36.12" fill="#9AE600" style="fill:#9AE600;fill:color(display-p3 0.6039 0.9020 0.0000);fill-opacity:1;"/>
<path d="M83.2 31.29C86.9 27.36 94.53 21.7 94.19 15.32C93.83 8.62 89.13 5.75 90.41 2.99C93.49 -3.59 125.69 5.02 128.25 4.25C134.48 2.39 117.89 21.1 99.92 7.75C92.97 2.59 96.17 28.33 96.92 36.12" stroke="#404E2E" style="stroke:#404E2E;stroke:color(display-p3 0.2510 0.3059 0.1804);stroke-opacity:1;" stroke-miterlimit="10"/>
<path d="M121.8 5.91998C122.33 7.21998 119.32 8.25998 118.37 8.53998C113.95 9.75998 108.84 9.09998 105.18 6.25998C106.58 6.84998 107.99 7.30998 109.44 7.61998C113.02 8.34998 116.83 8.36998 120.32 7.22998C120.87 6.99998 121.96 6.66998 121.8 5.91998Z" fill="#404E2E" style="fill:#404E2E;fill:color(display-p3 0.2510 0.3059 0.1804);fill-opacity:1;"/>
</g>
<defs>
<clipPath id="clip0_29_593">
<rect width="173.06" height="146.99" fill="white" style="fill:white;fill-opacity:1;"/>
</clipPath>
</defs>
</svg>
