<svg width="218" height="236" viewBox="0 0 218 236" fill="none" xmlns="http://www.w3.org/2000/svg">
<path d="M83.9526 25.4831C74.0971 27.8589 64.8721 35.6299 58.765 50.3409C54.5262 60.5345 45.9902 50.7271 36.7186 55.4435C21.2814 63.2964 25.0648 74.0401 8.90361 95.1645C-5.07392 113.433 18.7708 124.739 12.6286 141.966C-5.42423 170.58 -10.7724 185.186 59.6057 199.031C61.5909 197.147 63.0271 210.067 57.9126 214.327C53.0315 218.377 42.779 218.107 41.8098 222.824C39.5444 233.872 74.3306 241.947 70.629 226.218C65.5144 204.473 117.209 149.292 117.256 210.922C117.256 221.595 136.943 205.058 137.597 202.425C140.19 192.114 130.93 195.45 125.255 196.831C119.615 198.2 125.196 180.212 131.654 177.79C138.099 175.379 143.086 180.423 150.302 182.892C172.313 190.406 189.701 165.174 197.781 147.209C207.8 124.926 195.084 85.8721 142.677 83.4846C132.751 83.0282 125.278 85.2284 131.514 46.6076C133.732 32.8562 120.303 41.0134 105.789 38.4855C89.3241 35.6182 88.9504 24.2777 83.9526 25.4831Z" fill="#9AE600" stroke="#404E2E" style="fill:#9AE600;fill:color(display-p3 0.6039 0.9020 0.0000);fill-opacity:1;stroke:#404E2E;stroke:color(display-p3 0.2510 0.3059 0.1804);stroke-opacity:1;" stroke-miterlimit="10"/>
<path d="M102.087 107.231C97.5915 115.832 93.4928 121.356 88.1797 121.895C81.1034 122.609 78.4643 114.615 83.252 103.088C86.9536 94.1814 92.0799 86.902 97.1594 88.4234C103.92 90.4481 106.384 99.0149 102.087 107.231Z" fill="#EDEDED" style="fill:#EDEDED;fill:color(display-p3 0.9294 0.9294 0.9294);fill-opacity:1;"/>
<path d="M92.6871 108.424C92.1499 110.823 91.2858 111.081 89.0672 112.251C87.6542 112.989 87.0003 110.777 87.3857 107.441C87.6659 105.03 89.3824 104.188 90.9939 103.31C92.2317 102.631 93.7263 103.79 92.6871 108.424Z" fill="#404E2E" style="fill:#404E2E;fill:color(display-p3 0.2510 0.3059 0.1804);fill-opacity:1;"/>
<path d="M75.9888 98.7457C72.4272 105.381 69.1576 109.641 64.8604 110.004C59.1387 110.496 56.9434 104.27 60.7151 95.3634C63.6344 88.4819 67.7213 82.876 71.8434 84.1049C77.3316 85.7316 79.3985 92.4025 75.9888 98.7457Z" fill="#EDEDED" style="fill:#EDEDED;fill:color(display-p3 0.9294 0.9294 0.9294);fill-opacity:1;"/>
<path d="M70.7691 101.894C70.2319 104.293 69.3678 104.551 67.1492 105.721C65.7362 106.458 65.0823 104.246 65.4677 100.911C65.7479 98.4999 67.4645 97.6573 69.0759 96.7795C70.3137 96.1007 71.8083 97.2594 70.7691 101.894Z" fill="#404E2E" style="fill:#404E2E;fill:color(display-p3 0.2510 0.3059 0.1804);fill-opacity:1;"/>
<path d="M176.833 134.464C202.067 129.42 199.661 114.557 198.447 111.631C190.798 93.2685 167.923 76.7552 163.567 78.5809C132.74 91.4545 134.993 65.5318 138.205 62.091C142.28 57.714 119.941 55.0105 125.815 48.4333C129.4 44.4073 146.822 50.3877 156.211 56.3681C177.65 70.0141 212.915 86.703 216.838 114.276C219.653 134.066 184.878 143.768 177.685 146.097" fill="#9AE600" style="fill:#9AE600;fill:color(display-p3 0.6039 0.9020 0.0000);fill-opacity:1;"/>
<path d="M176.832 134.464C202.067 129.42 199.661 114.557 198.447 111.631C190.798 93.2685 167.923 76.7552 163.567 78.5809C132.74 91.4545 134.993 65.5318 138.205 62.091C142.28 57.714 119.941 55.0105 125.815 48.4333C129.4 44.4073 146.822 50.3877 156.211 56.3681C177.65 70.0141 212.915 86.703 216.838 114.276C219.653 134.066 184.878 143.768 177.685 146.097" stroke="#404E2E" style="stroke:#404E2E;stroke:color(display-p3 0.2510 0.3059 0.1804);stroke-opacity:1;" stroke-miterlimit="10"/>
<path d="M92.8038 44.8286C95.8983 39.3164 102.94 30.7379 100.756 23.5872C98.4556 16.0854 92.3134 14.1426 93.0023 10.655C94.6371 2.3106 133.545 2.98939 136.243 1.39774C142.782 -2.47604 129.248 23.4701 105.123 13.3819C95.7932 9.48471 106.676 37.8184 109.724 46.4554" fill="#9AE600" style="fill:#9AE600;fill:color(display-p3 0.6039 0.9020 0.0000);fill-opacity:1;"/>
<path d="M92.8038 44.8286C95.8983 39.3164 102.94 30.7379 100.756 23.5872C98.4556 16.0854 92.3134 14.1426 93.0023 10.655C94.6371 2.3106 133.545 2.98939 136.243 1.39774C142.782 -2.47604 129.248 23.4701 105.123 13.3819C95.7932 9.48471 106.676 37.8184 109.724 46.4554" stroke="#404E2E" style="stroke:#404E2E;stroke:color(display-p3 0.2510 0.3059 0.1804);stroke-opacity:1;" stroke-miterlimit="10"/>
<path d="M129.388 5.10768C130.358 6.43016 127.24 8.46653 126.247 9.05169C121.588 11.6849 115.609 12.3754 110.658 10.1869C112.41 10.4678 114.15 10.5848 115.866 10.5263C120.128 10.3508 124.461 9.28576 128.092 7.00362C128.653 6.594 129.785 5.90351 129.4 5.09598L129.388 5.10768Z" fill="#404E2E" style="fill:#404E2E;fill:color(display-p3 0.2510 0.3059 0.1804);fill-opacity:1;"/>
</svg>
