<svg width="323" height="241" viewBox="0 0 323 241" fill="none" xmlns="http://www.w3.org/2000/svg">
<path d="M136.769 219.112C131.834 223.203 121.469 222.931 120.489 227.697C118.198 238.86 153.368 247.019 149.626 231.126C144.455 209.155 196.72 153.399 196.767 215.671C196.767 226.455 216.672 209.746 217.333 207.085C219.954 196.667 210.592 200.038 204.854 201.433C199.152 202.817 204.795 184.641 211.324 182.193C217.841 179.757 222.658 185.623 230.178 187.349C248.324 191.512 267.131 167.045 278.182 151.294C292.349 131.084 275.454 89.3175 222.469 86.9051C212.434 86.4439 199.884 84.7174 206.189 45.694C208.432 31.7993 191.325 38.5042 176.638 35.9499C170.7 34.9212 166.756 32.3078 164.36 30.7941C162.058 29.3396 160.275 27.8851 159.059 26.7972C149.095 29.1977 143.817 38.5515 137.631 53.4159C133.345 63.7157 124.715 53.8061 115.341 58.5717C99.7337 66.5065 104.255 84.4454 87.9159 105.79C83.7956 111.171 80.0413 114.789 76.7238 117.438C66.0866 125.929 64.0559 126.626 61.3406 130.682C52.8284 143.406 65.331 165.425 66.8303 167.991C73.1348 178.811 88.0103 195.863 104.846 194.527C118.399 193.451 125.931 181.023 131.917 184.724C137.69 188.295 136.616 213.353 136.781 219.124" fill="#9AE600" style="fill:#9AE600;fill:color(display-p3 0.6039 0.9020 0.0000);fill-opacity:1;"/>
<path d="M136.769 219.112C131.834 223.203 121.469 222.931 120.489 227.697C118.198 238.86 153.368 247.019 149.626 231.126C144.455 209.155 196.72 153.399 196.767 215.671C196.767 226.455 216.672 209.746 217.333 207.085C219.954 196.667 210.592 200.038 204.854 201.433C199.152 202.817 204.795 184.641 211.324 182.193C217.841 179.757 222.658 185.623 230.178 187.349C248.324 191.512 267.131 167.045 278.182 151.294C292.349 131.084 275.454 89.3175 222.469 86.9051C212.434 86.4439 199.884 84.7174 206.189 45.694C208.432 31.7993 191.325 38.5042 176.638 35.9499C170.7 34.9211 166.756 32.3078 164.36 30.7941C162.058 29.3396 160.275 27.8851 159.059 26.7972C149.095 29.1977 143.817 38.5515 137.631 53.4159C133.345 63.7157 124.715 53.8061 115.341 58.5717C99.7337 66.5065 104.255 84.4454 87.9159 105.79C83.7956 111.171 80.0413 114.789 76.7238 117.438C66.0866 125.929 64.0559 126.626 61.3406 130.682C52.8284 143.406 65.331 165.425 66.8303 167.991C73.1348 178.811 88.0103 195.863 104.846 194.527C118.399 193.451 125.931 181.023 131.917 184.724C137.69 188.295 136.616 213.353 136.781 219.124" stroke="#404E2E" style="stroke:#404E2E;stroke:color(display-p3 0.2510 0.3059 0.1804);stroke-opacity:1;" stroke-miterlimit="10"/>
<path d="M153.947 101.45C150.181 109.42 146.745 114.553 142.283 115.049C136.356 115.712 134.136 108.297 138.15 97.607C141.255 89.3529 145.553 82.6007 149.815 84.0079C155.482 85.8881 157.548 93.8229 153.947 101.45Z" fill="#EDEDED" style="fill:#EDEDED;fill:color(display-p3 0.9294 0.9294 0.9294);fill-opacity:1;"/>
<path d="M146.061 102.562C145.612 104.785 144.892 105.033 143.015 106.109C141.834 106.795 141.291 104.738 141.61 101.651C141.846 99.4163 143.286 98.6358 144.644 97.8198C145.683 97.1931 146.934 98.2692 146.061 102.562Z" fill="#404E2E" style="fill:#404E2E;fill:color(display-p3 0.2510 0.3059 0.1804);fill-opacity:1;"/>
<path d="M177.594 108.238C173.828 116.208 170.393 121.34 165.93 121.837C160.003 122.499 157.784 115.085 161.798 104.395C164.903 96.1407 169.2 89.3884 173.462 90.7956C179.129 92.6759 181.195 100.611 177.594 108.238Z" fill="#EDEDED" style="fill:#EDEDED;fill:color(display-p3 0.9294 0.9294 0.9294);fill-opacity:1;"/>
<path d="M169.708 109.338C169.259 111.561 168.539 111.809 166.662 112.885C165.481 113.571 164.938 111.514 165.257 108.427C165.493 106.192 166.934 105.412 168.291 104.596C169.33 103.969 170.582 105.045 169.708 109.338Z" fill="#404E2E" style="fill:#404E2E;fill:color(display-p3 0.2510 0.3059 0.1804);fill-opacity:1;"/>
<path d="M267.474 113.488C283.719 103.614 291.239 93.2316 286.552 91.2331C282.042 89.3056 269.528 79.1714 271.452 72.1235C272.479 68.3512 281.948 76.0022 285.974 79.1832C291.086 83.2156 288.583 65.3358 291.959 65.5605C297.166 65.9152 295.289 80.3421 299.078 79.467C301.794 78.8402 309.963 66.6011 313.6 71.8397C314.58 73.2469 306.847 80.9924 308.476 83.8069C310.294 86.9524 321.451 81.43 321.864 82.9554C323.906 90.6537 302.313 91.1977 300.507 95.7977C293.884 112.661 290.826 126.07 273.447 129.748" fill="#9AE600" style="fill:#9AE600;fill:color(display-p3 0.6039 0.9020 0.0000);fill-opacity:1;"/>
<path d="M267.474 113.488C283.719 103.614 291.239 93.2316 286.552 91.2331C282.042 89.3056 269.528 79.1714 271.452 72.1235C272.479 68.3512 281.948 76.0022 285.974 79.1832C291.086 83.2156 288.583 65.3358 291.959 65.5605C297.166 65.9152 295.289 80.3421 299.078 79.467C301.794 78.8402 309.963 66.6011 313.6 71.8397C314.58 73.2469 306.847 80.9924 308.476 83.8069C310.294 86.9524 321.451 81.43 321.864 82.9554C323.906 90.6537 302.313 91.1977 300.507 95.7977C293.884 112.661 290.826 126.07 273.447 129.748" stroke="#404E2E" style="stroke:#404E2E;stroke:color(display-p3 0.2510 0.3059 0.1804);stroke-opacity:1;" stroke-miterlimit="10"/>
<path d="M153.947 101.45C150.181 109.42 146.745 114.553 142.283 115.049C136.356 115.712 134.136 108.297 138.15 97.607C141.255 89.3529 145.553 82.6007 149.815 84.0079C155.482 85.8881 157.548 93.8229 153.947 101.45Z" fill="#EDEDED" style="fill:#EDEDED;fill:color(display-p3 0.9294 0.9294 0.9294);fill-opacity:1;"/>
<path d="M146.061 102.562C145.612 104.785 144.892 105.033 143.015 106.109C141.834 106.795 141.291 104.738 141.61 101.651C141.846 99.4163 143.286 98.6358 144.644 97.8198C145.683 97.1931 146.934 98.2692 146.061 102.562Z" fill="#404E2E" style="fill:#404E2E;fill:color(display-p3 0.2510 0.3059 0.1804);fill-opacity:1;"/>
<path d="M177.594 108.238C173.828 116.208 170.393 121.34 165.93 121.837C160.003 122.499 157.784 115.085 161.798 104.395C164.903 96.1406 169.2 89.3884 173.462 90.7956C179.129 92.6758 181.195 100.611 177.594 108.238Z" fill="#EDEDED" style="fill:#EDEDED;fill:color(display-p3 0.9294 0.9294 0.9294);fill-opacity:1;"/>
<path d="M169.708 109.338C169.259 111.561 168.539 111.809 166.662 112.885C165.481 113.571 164.938 111.514 165.257 108.427C165.493 106.192 166.934 105.412 168.291 104.596C169.33 103.969 170.582 105.045 169.708 109.338Z" fill="#404E2E" style="fill:#404E2E;fill:color(display-p3 0.2510 0.3059 0.1804);fill-opacity:1;"/>
<path d="M78.2113 118.289C59.9356 123.528 33.254 133.39 37.2445 136.559C41.0814 139.61 50.4908 152.689 46.7837 158.98C44.8003 162.35 37.6813 152.464 34.6235 148.337C30.7512 143.099 28.4608 161.014 25.2732 159.903C20.3501 158.188 25.9461 144.766 22.0619 144.612C19.2757 144.506 8.17807 154.155 6.04118 148.136C5.46268 146.516 14.9547 141.089 14.1401 137.943C13.2192 134.419 0.988203 136.808 1.00001 135.235C1.04723 127.277 22.0265 132.444 24.978 128.483C35.7923 113.961 74.5279 104.087 92.2605 105.128" fill="#9AE600" style="fill:#9AE600;fill:color(display-p3 0.6039 0.9020 0.0000);fill-opacity:1;"/>
<path d="M78.2113 118.289C59.9356 123.528 33.254 133.39 37.2445 136.559C41.0814 139.61 50.4908 152.689 46.7837 158.98C44.8003 162.35 37.6813 152.464 34.6235 148.337C30.7512 143.099 28.4608 161.014 25.2732 159.903C20.3501 158.188 25.9461 144.766 22.0619 144.612C19.2757 144.506 8.17807 154.155 6.04118 148.136C5.46268 146.516 14.9547 141.089 14.1401 137.943C13.2192 134.419 0.988203 136.808 1.00001 135.235C1.04723 127.277 22.0265 132.444 24.978 128.483C35.7923 113.961 74.5279 104.087 92.2605 105.128" stroke="#404E2E" style="stroke:#404E2E;stroke:color(display-p3 0.2510 0.3059 0.1804);stroke-opacity:1;" stroke-miterlimit="10"/>
<path d="M167.913 39.8287C171.691 34.6847 179.826 26.9627 178.515 19.5128C177.146 11.6963 171.219 9.00013 172.329 5.58263C174.997 -2.58865 213.957 2.92194 216.861 1.66846C223.898 -1.40612 207.121 22.9303 184.159 9.81608C175.28 4.74303 182.695 34.5073 184.69 43.5536" fill="#9AE600" style="fill:#9AE600;fill:color(display-p3 0.6039 0.9020 0.0000);fill-opacity:1;"/>
<path d="M167.913 39.8287C171.691 34.6847 179.826 26.9627 178.515 19.5128C177.146 11.6963 171.219 9.00013 172.329 5.58263C174.997 -2.58865 213.957 2.92194 216.861 1.66846C223.898 -1.40612 207.121 22.9303 184.159 9.81608C175.28 4.74303 182.695 34.5073 184.69 43.5536" stroke="#404E2E" style="stroke:#404E2E;stroke:color(display-p3 0.2510 0.3059 0.1804);stroke-opacity:1;" stroke-miterlimit="10"/>
</svg>
