<svg width="109" height="109" viewBox="0 0 109 109" fill="none" xmlns="http://www.w3.org/2000/svg">
<path d="M62 2.43138e-07H84.0875C89.0088 2.43138e-07 93 3.99125 93 8.9125V31C92.9897 33.6815 92.6642 36.2648 92.0235 38.75H98.8745C104.191 38.75 108.5 43.059 108.5 48.3755V73.625C108.501 80.1927 106.647 86.6272 103.151 92.1876C99.6562 97.7481 94.6619 102.209 88.7433 105.056C82.8248 107.903 76.2226 109.021 69.6966 108.281C63.1707 107.541 56.9863 104.974 51.8553 100.874L45.3685 107.369C44.6409 108.095 43.6544 108.503 42.6261 108.502C41.5979 108.501 40.612 108.092 39.8854 107.365C39.1588 106.637 38.751 105.651 38.7517 104.622C38.7525 103.594 39.1616 102.608 39.8893 101.881L46.376 95.3948C43.6312 91.9646 41.5592 88.0467 40.269 83.8473C35.6257 85.3022 30.7052 85.6436 25.9054 84.8439C21.1057 84.0443 16.5616 82.126 12.6409 79.2442C8.72008 76.3625 5.53272 72.5983 3.33668 68.2561C1.14064 63.914 -0.00241416 59.1159 3.82824e-06 54.25V32.147C0.00411002 29.7859 0.944915 27.523 2.61589 25.8549C4.28686 24.1869 6.55145 23.25 8.9125 23.25H31L31.9765 23.2655C33.6921 16.607 37.5727 10.7078 43.0078 6.49606C48.4429 2.28434 55.124 -0.000860627 62 2.43138e-07ZM76.3685 76.3685L57.381 95.356C61.4132 98.3711 66.2049 100.205 71.2199 100.651C76.2349 101.097 81.2751 100.139 85.7765 97.8837C90.2778 95.6282 94.0626 92.1644 96.7071 87.88C99.3516 83.5957 100.751 78.6598 100.75 73.625V48.3678C100.751 48.1215 100.703 47.8776 100.609 47.65C100.515 47.4224 100.377 47.2157 100.203 47.042C100.028 46.8683 99.8208 46.7309 99.5929 46.6378C99.3649 46.5448 99.1207 46.4979 98.8745 46.5H73.625C68.5909 46.5 63.656 47.9009 59.3728 50.546C55.0895 53.1911 51.6269 56.9759 49.3723 61.477C47.1178 65.9781 46.1603 71.0177 46.607 76.032C47.0537 81.0463 48.887 85.8374 51.9018 89.869L70.8893 70.8815C71.6169 70.1549 72.6033 69.7471 73.6316 69.7478C74.6599 69.7486 75.6458 70.1578 76.3724 70.8854C77.099 71.613 77.5068 72.5995 77.506 73.6277C77.5053 74.656 77.0961 75.6419 76.3685 76.3685ZM83.9248 38.75C84.7773 36.3243 85.25 33.7125 85.25 31V8.9125C85.25 8.60419 85.1275 8.3085 84.9095 8.09049C84.6915 7.87248 84.3958 7.75 84.0875 7.75H62C56.9704 7.74951 52.0762 9.38003 48.0519 12.3969C44.0275 15.4138 41.09 19.6543 39.68 24.4822C44.0264 25.7542 48.0424 27.9607 51.4467 30.9474C54.851 33.934 57.5614 37.6286 59.3883 41.7725C63.8685 39.775 68.7197 38.7451 73.625 38.75H83.9248ZM52.6535 45.756C50.9458 41.4048 47.9662 37.6693 44.1035 35.037C40.2408 32.4047 35.6743 30.9979 31 31H8.9125C8.60419 31 8.3085 31.1225 8.09049 31.3405C7.87248 31.5585 7.75 31.8542 7.75 32.1625V54.25C7.74895 57.9784 8.6446 61.6525 10.3614 64.9621C12.0782 68.2718 14.5657 71.1201 17.6143 73.2667C20.6628 75.4132 24.1829 76.7952 27.8775 77.2959C31.5722 77.7966 35.3331 77.4015 38.843 76.1437C38.6483 73.4057 38.7706 70.6543 39.2073 67.9443L24.3815 53.1185C24.0212 52.7582 23.7354 52.3305 23.5404 51.8598C23.3455 51.389 23.2451 50.8845 23.2451 50.375C23.2451 49.8655 23.3455 49.361 23.5404 48.8902C23.7354 48.4195 24.0212 47.9918 24.3815 47.6315C24.7418 47.2712 25.1695 46.9854 25.6402 46.7904C26.111 46.5955 26.6155 46.4951 27.125 46.4951C27.6345 46.4951 28.139 46.5955 28.6098 46.7904C29.0805 46.9854 29.5082 47.2712 29.8685 47.6315L41.726 59.4968C44.1372 54.0596 47.8989 49.3295 52.6535 45.756Z" fill="#9AE600" style="fill:#9AE600;fill:color(display-p3 0.6039 0.9020 0.0000);fill-opacity:1;"/>
</svg>
