<?xml version="1.0" encoding="UTF-8"?>
<svg id="Layer_1" data-name="Layer 1" xmlns="http://www.w3.org/2000/svg" viewBox="0 0 35.23 19.18">
  <defs>
    <style>
      .cls-1 {
        fill: none;
        stroke: #000;
        stroke-miterlimit: 10;
      }
    </style>
  </defs>
  <path class="cls-1" d="M27.02,16.5c-4.51,3-6.84,0-6.84,0-3.84,3-10.16,0-10.16,0,0,0-3.75,2-7.88,0s-.12-12,7.88-8c0,0-1-5,6-5,0,0,7,0,5.6,6.24,0,0,1.4-1.05,4.4-1.65"/>
  <g>
    <path d="M11.19,14.61c-.22-.13-.4-.32-.52-.56s-.18-.52-.18-.84v-1.17c0-.32.06-.59.18-.83s.3-.43.52-.56.48-.2.78-.2c.24,0,.47.05.67.16.21.1.38.25.51.44.14.19.23.41.28.67h-.61c-.04-.13-.1-.25-.19-.36s-.19-.19-.31-.24-.24-.08-.36-.08c-.17,0-.33.04-.46.13s-.23.2-.3.35-.11.33-.11.53v1.17c0,.2.04.38.11.53s.17.27.3.35.28.12.46.12c.13,0,.25-.03.36-.08s.22-.13.3-.23.15-.23.19-.37h.61c-.05.25-.14.47-.28.67s-.31.34-.52.44c-.21.1-.43.16-.67.16-.29,0-.55-.06-.78-.2Z"/>
    <path d="M14.79,14.61c-.23-.13-.4-.31-.53-.55s-.19-.51-.19-.83v-1.21c0-.31.06-.59.19-.82s.3-.42.53-.55.49-.19.79-.19.56.06.79.19.4.31.53.55c.12.24.19.51.19.82v1.21c0,.31-.06.59-.19.83-.12.24-.3.42-.53.55s-.49.19-.79.19-.56-.06-.79-.19ZM16.04,14.1c.13-.08.24-.19.31-.34.07-.15.11-.31.11-.5v-1.25c0-.19-.04-.36-.11-.51-.07-.15-.18-.26-.31-.34s-.29-.12-.46-.12-.33.04-.46.12c-.13.08-.24.19-.31.34-.07.15-.11.31-.11.51v1.25c0,.19.04.36.11.5.07.15.18.26.31.34.13.08.29.12.46.12s.33-.04.46-.12Z"/>
    <path d="M17.88,14.24l1.49-1.98c.09-.11.15-.23.2-.35s.07-.24.07-.34h0c0-.18-.05-.31-.15-.4s-.24-.14-.42-.14c-.17,0-.31.05-.42.15s-.17.25-.2.44h0s-.62,0-.62,0h0c.04-.25.11-.46.21-.63.11-.17.25-.3.42-.4s.37-.14.59-.14c.25,0,.47.04.65.13s.32.21.41.38.14.37.14.6h0c0,.15-.03.31-.09.47s-.15.32-.26.47l-1.23,1.68h1.61v.57h-2.4v-.52Z"/>
  </g>
  <polyline class="cls-1" points="26.02 .34 26.02 13.57 23.02 13.5 29.02 18.5 34.02 13.5 31.02 13.5 31.02 .5 25.52 .5"/>
</svg>