<?xml version="1.0" encoding="UTF-8"?>
<svg id="Layer_1" data-name="Layer 1" xmlns="http://www.w3.org/2000/svg" viewBox="0 0 18.31 27.3">
  <defs>
    <style>
      .cls-1 {
        fill: none;
        stroke: #000;
        stroke-miterlimit: 10;
      }
    </style>
  </defs>
  <path class="cls-1" d="M17.54,19.83c-3.13.67-4.3.67-4.3.67-4.53,0-8.21-3.13-8.21-7s3.67-7,8.21-7c0,0,1.95,0,4.3.67l-1.04-3.17c-3-1-5.5-1-5.5-1C5.2,3,.5,7.7.5,13.5s4.7,10.5,10.5,10.5c0,0,1.5,0,5.5-1l1.04-3.17Z"/>
  <line class="cls-1" x1="7.5" x2="7.5" y2="3.6"/>
  <line class="cls-1" x1="13.04" x2="13.04" y2="3.18"/>
  <line class="cls-1" x1="13.04" y1="23.75" x2="13.04" y2="27.3"/>
  <line class="cls-1" x1="7.5" y1="23.4" x2="7.5" y2="27.3"/>
</svg>