<?xml version="1.0" encoding="UTF-8"?>
<svg id="Layer_1" data-name="Layer 1" xmlns="http://www.w3.org/2000/svg" viewBox="0 0 36 27">
  <defs>
    <style>
      .cls-1 {
        fill: none;
        stroke: #000;
        stroke-miterlimit: 10;
      }
    </style>
  </defs>
  <rect class="cls-1" x=".5" y=".5" width="35" height="26"/>
  <polygon class="cls-1" points="34 .5 2 .5 18 13 34 .5"/>
  <path d="M19.48,24.31c-.79.44-1.6.61-2.57.61-2.37,0-4.37-1.83-4.37-4.77,0-3.15,2.06-5.86,5.26-5.86,2.51,0,4.2,1.86,4.2,4.41,0,2.29-1.21,3.63-2.57,3.63-.58,0-1.11-.41-1.07-1.34h-.06c-.5.9-1.17,1.34-2.03,1.34s-1.56-.72-1.56-1.92c0-1.9,1.41-3.62,3.42-3.62.62,0,1.17.14,1.54.32l-.49,2.77c-.22,1.16-.04,1.69.43,1.71.74.01,1.56-1.02,1.56-2.79,0-2.22-1.25-3.8-3.49-3.8-2.35,0-4.33,1.97-4.33,5.07,0,2.55,1.57,4.12,3.71,4.12.82,0,1.59-.18,2.18-.53l.23.66ZM18.68,17.72c-.15-.05-.39-.11-.72-.11-1.27,0-2.29,1.27-2.29,2.75,0,.67.32,1.16.95,1.16.84,0,1.6-1.13,1.76-2.08l.3-1.73Z"/>
</svg>