<?xml version="1.0" encoding="UTF-8"?>
<svg id="Layer_1" data-name="Layer 1" xmlns="http://www.w3.org/2000/svg" viewBox="0 0 24 21">
  <defs>
    <style>
      .cls-1 {
        fill: none;
        stroke: #000;
        stroke-miterlimit: 10;
      }
    </style>
  </defs>
  <rect class="cls-1" x=".5" y="15.5" width="18" height="5"/>
  <polygon class="cls-1" points="17.5 .5 20.5 .5 20.5 3.5 23.5 3.5 23.5 6.5 20.5 6.5 20.5 9.5 17.5 9.5 17.5 6.5 14.5 6.5 14.5 3.5 17.5 3.5 17.5 .5"/>
  <polyline class="cls-1" points="17.5 1.5 .5 1.5 .5 6.5 17.5 6.5"/>
  <polyline class="cls-1" points="17.5 8.5 .5 8.5 .5 13.5 18.5 13.5 18.5 9.7"/>
  <line class="cls-1" x1="2.06" y1="18" x2="6.65" y2="18"/>
  <line class="cls-1" x1="2.22" y1="11.02" x2="6.81" y2="11.02"/>
  <line class="cls-1" x1="2.22" y1="4.02" x2="6.81" y2="4.02"/>
</svg>