<?xml version="1.0" encoding="UTF-8"?>
<svg id="Layer_1" data-name="Layer 1" xmlns="http://www.w3.org/2000/svg" viewBox="0 0 28.06 41.43">
  <defs>
    <style>
      .cls-1 {
        fill: none;
        stroke: #000;
        stroke-miterlimit: 10;
      }
    </style>
  </defs>
  <path class="cls-1" d="M17.13,26.73c0-4.3-6.48-4.1-6.35,0h6.35Z"/>
  <path class="cls-1" d="M10.78,26.73h-1.78s-.94-5.31,4.96-5.36c5.9-.04,5.04,5.36,5.04,5.36h-1.86"/>
  <polyline class="cls-1" points="18.99 26.73 20.11 26.73 20.11 35.88 7.61 35.88 7.75 26.73 9 26.73"/>
  <path class="cls-1" d="M14.86,32.55h0v1.66h-2.27v-1.66h0c-1.86,0-2.32-4.16,1.36-4.16,3.44,0,2.72,4.16.91,4.16Z"/>
  <path class="cls-1" d="M.97,40.93S-3.3,17.89,13.83,17.65s13.37,23.28,13.37,23.28H.97Z"/>
  <circle class="cls-1" cx="14.03" cy="9.07" r="8.57"/>
</svg>