<svg width="120" height="120" viewBox="0 0 120 120" fill="none" xmlns="http://www.w3.org/2000/svg">
<path d="M97.3585 24.5725C94.1267 17.2616 88.8405 11.0472 82.1426 6.68477C75.4446 2.32239 67.6235 0 59.6302 0C51.6369 0 43.8157 2.32239 37.1178 6.68477C30.4198 11.0472 25.1336 17.2616 21.9019 24.5725C12.8317 29.0305 5.83454 36.8204 2.37184 46.3153C-1.09085 55.8101 -0.751309 66.2757 3.31955 75.5261C7.39041 84.7766 14.8778 92.0965 24.2179 95.9572C33.558 99.8179 44.0285 99.9208 53.4427 96.2444V113.456C53.4427 115.097 54.0946 116.671 55.255 117.831C56.4153 118.992 57.9892 119.643 59.6302 119.643C61.2712 119.643 62.845 118.992 64.0054 117.831C65.1658 116.671 65.8177 115.097 65.8177 113.456V96.2547C70.4138 98.0748 75.3118 99.0124 80.2552 99.0184H81.2452C90.0303 98.8021 98.4876 95.6391 105.259 90.0377C112.03 84.4363 116.722 76.7216 118.581 68.1327C120.44 59.5438 119.358 50.5794 115.509 42.6794C111.66 34.7793 105.268 28.4023 97.3585 24.5725ZM80.9513 86.6434C75.5972 86.7755 70.3262 85.301 65.8177 82.4101V63.6569L87.1491 52.9886C87.8877 52.6322 88.5481 52.1326 89.0919 51.5187C89.6357 50.9048 90.052 50.189 90.3167 49.4128C90.5814 48.6366 90.6891 47.8155 90.6336 46.9973C90.5782 46.179 90.3606 45.38 89.9935 44.6466C89.6265 43.9133 89.1174 43.2602 88.4957 42.7253C87.874 42.1905 87.1522 41.7845 86.3722 41.5311C85.5923 41.2777 84.7697 41.1819 83.9524 41.2492C83.135 41.3165 82.3393 41.5457 81.6113 41.9233L65.8177 49.8175V39.2059C65.8177 37.5649 65.1658 35.9911 64.0054 34.8307C62.845 33.6703 61.2712 33.0184 59.6302 33.0184C57.9892 33.0184 56.4153 33.6703 55.255 34.8307C54.0946 35.9911 53.4427 37.5649 53.4427 39.2059V62.1925L37.6491 54.2983C36.1851 53.5919 34.5019 53.49 32.9634 54.0146C31.4249 54.5392 30.1546 55.6482 29.4271 57.1018C28.6996 58.5555 28.5733 60.237 29.0756 61.783C29.5779 63.3289 30.6683 64.6151 32.1113 65.3636L53.4427 76.0319V82.4101C48.931 85.2941 43.6622 86.7679 38.3091 86.6434C24.1139 86.2877 12.1566 73.9797 12.1927 59.7639C12.1948 54.4227 13.7981 49.2047 16.7953 44.7837C19.7926 40.3627 24.0463 36.9417 29.0072 34.9623C29.81 34.6387 30.5359 34.1502 31.1381 33.5285C31.7402 32.9068 32.2053 32.1656 32.5031 31.353C34.5324 25.789 38.2235 20.9837 43.076 17.5884C47.9286 14.193 53.7077 12.3719 59.6302 12.3719C65.5526 12.3719 71.3318 14.193 76.1843 17.5884C81.0368 20.9837 84.7279 25.789 86.7572 31.353C87.0551 32.1656 87.5201 32.9068 88.1223 33.5285C88.7245 34.1502 89.4504 34.6387 90.2531 34.9623C95.2124 36.9411 99.465 40.3605 102.462 44.7795C105.459 49.1984 107.063 54.4141 107.068 59.7536C107.109 73.9642 95.1464 86.2773 80.9513 86.6434Z" fill="#93E371" style="fill:#93E371;fill:color(display-p3 0.5766 0.8893 0.4426);fill-opacity:1;"/>
</svg>
